G04 EAGLE Gerber RS-274X export*
G75*
%MOMM*%
%FSLAX34Y34*%
%LPD*%
%IN*%
%IPPOS*%
%AMOC8*
5,1,8,0,0,1.08239X$1,22.5*%
G01*
%ADD10C,0.800000*%
%ADD11C,0.254000*%


D10*
X85340Y92200D02*
X85340Y62200D01*
X105340Y29200D02*
X135340Y29200D01*
X145340Y59700D02*
X145340Y94700D01*
D11*
X0Y20000D02*
X76Y18257D01*
X304Y16527D01*
X681Y14824D01*
X1206Y13160D01*
X1874Y11548D01*
X2680Y10000D01*
X3617Y8528D01*
X4679Y7144D01*
X5858Y5858D01*
X7144Y4679D01*
X8528Y3617D01*
X10000Y2680D01*
X11548Y1874D01*
X13160Y1206D01*
X14824Y681D01*
X16527Y304D01*
X18257Y76D01*
X20000Y0D01*
X740000Y0D01*
X741743Y76D01*
X743473Y304D01*
X745176Y681D01*
X746840Y1206D01*
X748452Y1874D01*
X750000Y2680D01*
X751472Y3617D01*
X752856Y4679D01*
X754142Y5858D01*
X755321Y7144D01*
X756383Y8528D01*
X757321Y10000D01*
X758126Y11548D01*
X758794Y13160D01*
X759319Y14824D01*
X759696Y16527D01*
X759924Y18257D01*
X760000Y20000D01*
X760000Y310000D01*
X759924Y311743D01*
X759696Y313473D01*
X759319Y315176D01*
X758794Y316840D01*
X758126Y318452D01*
X757321Y320000D01*
X756383Y321472D01*
X755321Y322856D01*
X754142Y324142D01*
X752856Y325321D01*
X751472Y326383D01*
X750000Y327321D01*
X748452Y328126D01*
X746840Y328794D01*
X745176Y329319D01*
X743473Y329696D01*
X741743Y329924D01*
X740000Y330000D01*
X20000Y330000D01*
X18257Y329924D01*
X16527Y329696D01*
X14824Y329319D01*
X13160Y328794D01*
X11548Y328126D01*
X10000Y327321D01*
X8528Y326383D01*
X7144Y325321D01*
X5858Y324142D01*
X4679Y322856D01*
X3617Y321472D01*
X2680Y320000D01*
X1874Y318452D01*
X1206Y316840D01*
X681Y315176D01*
X304Y313473D01*
X76Y311743D01*
X0Y310000D01*
X0Y20000D01*
X745500Y29446D02*
X745421Y28342D01*
X745263Y27246D01*
X745028Y26164D01*
X744716Y25102D01*
X744329Y24065D01*
X743869Y23058D01*
X743339Y22086D01*
X742740Y21154D01*
X742077Y20268D01*
X741352Y19431D01*
X740569Y18648D01*
X739732Y17923D01*
X738846Y17260D01*
X737914Y16661D01*
X736943Y16131D01*
X735935Y15671D01*
X734898Y15284D01*
X733836Y14972D01*
X732754Y14737D01*
X731658Y14579D01*
X730554Y14500D01*
X729446Y14500D01*
X728342Y14579D01*
X727246Y14737D01*
X726164Y14972D01*
X725102Y15284D01*
X724065Y15671D01*
X723058Y16131D01*
X722086Y16661D01*
X721154Y17260D01*
X720268Y17923D01*
X719431Y18648D01*
X718648Y19431D01*
X717923Y20268D01*
X717260Y21154D01*
X716661Y22086D01*
X716131Y23058D01*
X715671Y24065D01*
X715284Y25102D01*
X714972Y26164D01*
X714737Y27246D01*
X714579Y28342D01*
X714500Y29446D01*
X714500Y30554D01*
X714579Y31658D01*
X714737Y32754D01*
X714972Y33836D01*
X715284Y34898D01*
X715671Y35935D01*
X716131Y36943D01*
X716661Y37914D01*
X717260Y38846D01*
X717923Y39732D01*
X718648Y40569D01*
X719431Y41352D01*
X720268Y42077D01*
X721154Y42740D01*
X722086Y43339D01*
X723058Y43869D01*
X724065Y44329D01*
X725102Y44716D01*
X726164Y45028D01*
X727246Y45263D01*
X728342Y45421D01*
X729446Y45500D01*
X730554Y45500D01*
X731658Y45421D01*
X732754Y45263D01*
X733836Y45028D01*
X734898Y44716D01*
X735935Y44329D01*
X736943Y43869D01*
X737914Y43339D01*
X738846Y42740D01*
X739732Y42077D01*
X740569Y41352D01*
X741352Y40569D01*
X742077Y39732D01*
X742740Y38846D01*
X743339Y37914D01*
X743869Y36943D01*
X744329Y35935D01*
X744716Y34898D01*
X745028Y33836D01*
X745263Y32754D01*
X745421Y31658D01*
X745500Y30554D01*
X745500Y29446D01*
X252139Y297889D02*
X252060Y296785D01*
X251902Y295689D01*
X251667Y294607D01*
X251355Y293544D01*
X250968Y292507D01*
X250508Y291500D01*
X249977Y290528D01*
X249379Y289597D01*
X248715Y288710D01*
X247990Y287874D01*
X247207Y287091D01*
X246371Y286366D01*
X245484Y285702D01*
X244553Y285104D01*
X243581Y284573D01*
X242574Y284113D01*
X241537Y283726D01*
X240474Y283414D01*
X239392Y283179D01*
X238297Y283021D01*
X237192Y282942D01*
X236085Y282942D01*
X234981Y283021D01*
X233885Y283179D01*
X232803Y283414D01*
X231741Y283726D01*
X230703Y284113D01*
X229696Y284573D01*
X228724Y285104D01*
X227793Y285702D01*
X226907Y286366D01*
X226070Y287091D01*
X225287Y287874D01*
X224562Y288710D01*
X223898Y289597D01*
X223300Y290528D01*
X222769Y291500D01*
X222309Y292507D01*
X221922Y293544D01*
X221611Y294607D01*
X221375Y295689D01*
X221218Y296785D01*
X221139Y297889D01*
X221139Y298996D01*
X221218Y300100D01*
X221375Y301196D01*
X221611Y302278D01*
X221922Y303340D01*
X222309Y304378D01*
X222769Y305385D01*
X223300Y306357D01*
X223898Y307288D01*
X224562Y308174D01*
X225287Y309011D01*
X226070Y309794D01*
X226907Y310519D01*
X227793Y311183D01*
X228724Y311781D01*
X229696Y312312D01*
X230703Y312772D01*
X231741Y313159D01*
X232803Y313471D01*
X233885Y313706D01*
X234981Y313863D01*
X236085Y313942D01*
X237192Y313942D01*
X238297Y313863D01*
X239392Y313706D01*
X240474Y313471D01*
X241537Y313159D01*
X242574Y312772D01*
X243581Y312312D01*
X244553Y311781D01*
X245484Y311183D01*
X246371Y310519D01*
X247207Y309794D01*
X247990Y309011D01*
X248715Y308174D01*
X249379Y307288D01*
X249977Y306357D01*
X250508Y305385D01*
X250968Y304378D01*
X251355Y303340D01*
X251667Y302278D01*
X251902Y301196D01*
X252060Y300100D01*
X252139Y298996D01*
X252139Y297889D01*
M02*
