G04 EAGLE Gerber RS-274X export*
G75*
%MOMM*%
%FSLAX34Y34*%
%LPD*%
%INSilkscreen Top*%
%IPPOS*%
%AMOC8*
5,1,8,0,0,1.08239X$1,22.5*%
G01*
%ADD10R,6.350000X19.050000*%
%ADD11C,0.127000*%
%ADD12C,0.304800*%
%ADD13R,1.170000X0.026000*%
%ADD14R,0.884000X0.026000*%
%ADD15R,0.390000X0.026000*%
%ADD16R,1.144000X0.026000*%
%ADD17R,1.066000X0.026000*%
%ADD18R,0.572000X0.026000*%
%ADD19R,1.092000X0.026000*%
%ADD20R,0.728000X0.026000*%
%ADD21R,1.040000X0.026000*%
%ADD22R,1.222000X0.026000*%
%ADD23R,0.832000X0.026000*%
%ADD24R,1.014000X0.026000*%
%ADD25R,1.248000X0.026000*%
%ADD26R,0.936000X0.026000*%
%ADD27R,0.988000X0.026000*%
%ADD28R,1.300000X0.026000*%
%ADD29R,1.326000X0.026000*%
%ADD30R,1.352000X0.026000*%
%ADD31R,0.858000X0.026000*%
%ADD32R,1.378000X0.026000*%
%ADD33R,0.806000X0.026000*%
%ADD34R,1.404000X0.026000*%
%ADD35R,0.052000X0.026000*%
%ADD36R,0.780000X0.026000*%
%ADD37R,1.430000X0.026000*%
%ADD38R,0.078000X0.026000*%
%ADD39R,0.754000X0.026000*%
%ADD40R,1.482000X0.026000*%
%ADD41R,0.104000X0.026000*%
%ADD42R,0.702000X0.026000*%
%ADD43R,0.156000X0.026000*%
%ADD44R,0.650000X0.026000*%
%ADD45R,1.534000X0.026000*%
%ADD46R,1.456000X0.026000*%
%ADD47R,0.208000X0.026000*%
%ADD48R,0.624000X0.026000*%
%ADD49R,1.560000X0.026000*%
%ADD50R,1.508000X0.026000*%
%ADD51R,0.234000X0.026000*%
%ADD52R,0.598000X0.026000*%
%ADD53R,1.586000X0.026000*%
%ADD54R,0.286000X0.026000*%
%ADD55R,0.546000X0.026000*%
%ADD56R,1.612000X0.026000*%
%ADD57R,0.338000X0.026000*%
%ADD58R,0.494000X0.026000*%
%ADD59R,0.364000X0.026000*%
%ADD60R,0.468000X0.026000*%
%ADD61R,0.416000X0.026000*%
%ADD62R,0.442000X0.026000*%
%ADD63R,0.520000X0.026000*%
%ADD64R,0.312000X0.026000*%
%ADD65R,0.026000X0.026000*%
%ADD66R,0.130000X0.026000*%
%ADD67R,0.182000X0.026000*%
%ADD68R,0.260000X0.026000*%
%ADD69R,1.118000X0.026000*%
%ADD70R,1.196000X0.026000*%
%ADD71R,0.962000X0.026000*%
%ADD72R,0.676000X0.026000*%
%ADD73R,0.910000X0.026000*%
%ADD74R,1.274000X0.026000*%
%ADD75C,0.228600*%
%ADD76C,0.101600*%
%ADD77R,0.350000X0.800000*%
%ADD78C,0.203200*%
%ADD79C,0.152400*%
%ADD80R,0.406400X0.863600*%
%ADD81R,0.800000X0.350000*%
%ADD82R,0.863600X0.406400*%
%ADD83R,0.300000X0.600000*%
%ADD84R,0.500000X0.650000*%
%ADD85R,0.584200X0.457200*%
%ADD86C,0.200000*%
%ADD87C,0.100000*%
%ADD88R,0.571500X1.397000*%
%ADD89R,0.508000X0.508000*%

G36*
X427427Y188732D02*
X427427Y188732D01*
X427493Y188734D01*
X427536Y188752D01*
X427583Y188760D01*
X427640Y188794D01*
X427701Y188818D01*
X427735Y188850D01*
X427776Y188874D01*
X427818Y188925D01*
X427866Y188970D01*
X427888Y189012D01*
X427918Y189048D01*
X427939Y189111D01*
X427969Y189169D01*
X427977Y189224D01*
X427989Y189261D01*
X427988Y189300D01*
X427996Y189355D01*
X427996Y209675D01*
X427985Y209740D01*
X427983Y209805D01*
X427965Y209849D01*
X427957Y209896D01*
X427923Y209952D01*
X427898Y210013D01*
X427867Y210048D01*
X427843Y210089D01*
X427791Y210130D01*
X427747Y210179D01*
X427705Y210200D01*
X427668Y210230D01*
X427606Y210251D01*
X427547Y210281D01*
X427493Y210289D01*
X427456Y210302D01*
X427417Y210301D01*
X427362Y210309D01*
X423552Y210309D01*
X423487Y210297D01*
X423422Y210295D01*
X423378Y210278D01*
X423331Y210269D01*
X423275Y210236D01*
X423214Y210211D01*
X423179Y210179D01*
X423138Y210155D01*
X423097Y210104D01*
X423048Y210060D01*
X423026Y210018D01*
X422997Y209981D01*
X422976Y209919D01*
X422946Y209860D01*
X422937Y209806D01*
X422925Y209768D01*
X422925Y209746D01*
X422925Y209744D01*
X422925Y209725D01*
X422918Y209675D01*
X422918Y189355D01*
X422930Y189290D01*
X422931Y189224D01*
X422949Y189180D01*
X422958Y189134D01*
X422991Y189077D01*
X423016Y189016D01*
X423048Y188981D01*
X423072Y188941D01*
X423123Y188899D01*
X423167Y188851D01*
X423209Y188829D01*
X423246Y188799D01*
X423308Y188778D01*
X423367Y188748D01*
X423421Y188740D01*
X423458Y188727D01*
X423498Y188729D01*
X423552Y188720D01*
X427362Y188720D01*
X427427Y188732D01*
G37*
G36*
X447595Y36270D02*
X447595Y36270D01*
X447661Y36272D01*
X447705Y36290D01*
X447751Y36298D01*
X447808Y36331D01*
X447869Y36356D01*
X447904Y36388D01*
X447945Y36412D01*
X447986Y36463D01*
X448035Y36508D01*
X448056Y36550D01*
X448086Y36586D01*
X448107Y36649D01*
X448137Y36707D01*
X448145Y36762D01*
X448158Y36799D01*
X448157Y36838D01*
X448165Y36893D01*
X448165Y57213D01*
X448153Y57277D01*
X448151Y57343D01*
X448133Y57387D01*
X448125Y57433D01*
X448092Y57490D01*
X448067Y57551D01*
X448035Y57586D01*
X448011Y57627D01*
X447960Y57668D01*
X447915Y57717D01*
X447873Y57738D01*
X447837Y57768D01*
X447775Y57789D01*
X447716Y57819D01*
X447661Y57827D01*
X447624Y57840D01*
X447585Y57839D01*
X447531Y57847D01*
X443721Y57847D01*
X443656Y57835D01*
X443590Y57833D01*
X443546Y57815D01*
X443500Y57807D01*
X443443Y57774D01*
X443382Y57749D01*
X443347Y57717D01*
X443306Y57693D01*
X443265Y57642D01*
X443216Y57597D01*
X443195Y57555D01*
X443165Y57519D01*
X443144Y57457D01*
X443114Y57398D01*
X443106Y57343D01*
X443093Y57306D01*
X443094Y57284D01*
X443093Y57282D01*
X443094Y57263D01*
X443086Y57213D01*
X443086Y36893D01*
X443098Y36828D01*
X443100Y36762D01*
X443118Y36718D01*
X443126Y36672D01*
X443159Y36615D01*
X443184Y36554D01*
X443216Y36519D01*
X443240Y36478D01*
X443291Y36437D01*
X443336Y36388D01*
X443378Y36367D01*
X443414Y36337D01*
X443477Y36316D01*
X443535Y36286D01*
X443590Y36278D01*
X443627Y36265D01*
X443666Y36266D01*
X443721Y36258D01*
X447531Y36258D01*
X447595Y36270D01*
G37*
D10*
X795050Y166711D03*
D11*
X195412Y255837D02*
X194268Y254693D01*
X195412Y255837D02*
X197700Y255837D01*
X198844Y254693D01*
X198844Y253549D01*
X197700Y252405D01*
X196556Y252405D01*
X197700Y252405D02*
X198844Y251261D01*
X198844Y250117D01*
X197700Y248973D01*
X195412Y248973D01*
X194268Y250117D01*
X201752Y251261D02*
X201752Y255837D01*
X201752Y251261D02*
X204040Y248973D01*
X206328Y251261D01*
X206328Y255837D01*
X209236Y254693D02*
X210380Y255837D01*
X212668Y255837D01*
X213812Y254693D01*
X213812Y253549D01*
X212668Y252405D01*
X211524Y252405D01*
X212668Y252405D02*
X213812Y251261D01*
X213812Y250117D01*
X212668Y248973D01*
X210380Y248973D01*
X209236Y250117D01*
X751981Y272061D02*
X754268Y274349D01*
X754268Y267486D01*
X751981Y267486D02*
X756556Y267486D01*
X554247Y262349D02*
X551960Y260061D01*
X554247Y262349D02*
X554247Y255486D01*
X551960Y255486D02*
X556535Y255486D01*
X562876Y255486D02*
X562876Y262349D01*
X559444Y258917D01*
X564020Y258917D01*
X551866Y73015D02*
X547291Y73015D01*
X551866Y77591D01*
X551866Y78735D01*
X550722Y79879D01*
X548434Y79879D01*
X547291Y78735D01*
X554775Y79879D02*
X559351Y79879D01*
X554775Y79879D02*
X554775Y76447D01*
X557063Y77591D01*
X558207Y77591D01*
X559351Y76447D01*
X559351Y74159D01*
X558207Y73015D01*
X555919Y73015D01*
X554775Y74159D01*
X731981Y64735D02*
X733124Y65879D01*
X735412Y65879D01*
X736556Y64735D01*
X736556Y63591D01*
X735412Y62447D01*
X734268Y62447D01*
X735412Y62447D02*
X736556Y61303D01*
X736556Y60159D01*
X735412Y59015D01*
X733124Y59015D01*
X731981Y60159D01*
X739465Y64735D02*
X740609Y65879D01*
X742897Y65879D01*
X744041Y64735D01*
X744041Y63591D01*
X742897Y62447D01*
X744041Y61303D01*
X744041Y60159D01*
X742897Y59015D01*
X740609Y59015D01*
X739465Y60159D01*
X739465Y61303D01*
X740609Y62447D01*
X739465Y63591D01*
X739465Y64735D01*
X740609Y62447D02*
X742897Y62447D01*
X403268Y93117D02*
X403268Y98837D01*
X403268Y93117D02*
X404412Y91973D01*
X406700Y91973D01*
X407844Y93117D01*
X407844Y98837D01*
X410752Y96549D02*
X410752Y91973D01*
X410752Y96549D02*
X413040Y98837D01*
X415328Y96549D01*
X415328Y91973D01*
X415328Y95405D02*
X410752Y95405D01*
X418236Y91973D02*
X418236Y98837D01*
X421668Y98837D01*
X422812Y97693D01*
X422812Y95405D01*
X421668Y94261D01*
X418236Y94261D01*
X420524Y94261D02*
X422812Y91973D01*
X428008Y91973D02*
X428008Y98837D01*
X425720Y98837D02*
X430296Y98837D01*
X237268Y158973D02*
X237268Y165837D01*
X241844Y165837D01*
X239556Y162405D02*
X237268Y162405D01*
X244752Y163549D02*
X244752Y158973D01*
X244752Y163549D02*
X247040Y165837D01*
X249328Y163549D01*
X249328Y158973D01*
X249328Y162405D02*
X244752Y162405D01*
X252236Y158973D02*
X252236Y165837D01*
X256812Y158973D01*
X256812Y165837D01*
X225844Y134837D02*
X221268Y134837D01*
X221268Y131405D01*
X223556Y132549D01*
X224700Y132549D01*
X225844Y131405D01*
X225844Y129117D01*
X224700Y127973D01*
X222412Y127973D01*
X221268Y129117D01*
X228752Y130261D02*
X228752Y134837D01*
X228752Y130261D02*
X231040Y127973D01*
X233328Y130261D01*
X233328Y134837D01*
X273268Y137973D02*
X273268Y144837D01*
X273268Y137973D02*
X276700Y137973D01*
X277844Y139117D01*
X277844Y143693D01*
X276700Y144837D01*
X273268Y144837D01*
X280752Y142549D02*
X280752Y137973D01*
X280752Y140261D02*
X283040Y142549D01*
X284184Y142549D01*
X288133Y142549D02*
X290421Y142549D01*
X291565Y141405D01*
X291565Y137973D01*
X288133Y137973D01*
X286989Y139117D01*
X288133Y140261D01*
X291565Y140261D01*
X294473Y142549D02*
X295617Y142549D01*
X295617Y137973D01*
X294473Y137973D02*
X296761Y137973D01*
X295617Y144837D02*
X295617Y145981D01*
X299463Y142549D02*
X299463Y137973D01*
X299463Y142549D02*
X302894Y142549D01*
X304038Y141405D01*
X304038Y137973D01*
X638163Y282700D02*
X639307Y283844D01*
X638163Y282700D02*
X638163Y280412D01*
X639307Y279268D01*
X640451Y279268D01*
X641595Y280412D01*
X641595Y282700D01*
X642739Y283844D01*
X643883Y283844D01*
X645027Y282700D01*
X645027Y280412D01*
X643883Y279268D01*
X645027Y286752D02*
X638163Y286752D01*
X645027Y286752D02*
X645027Y290184D01*
X643883Y291328D01*
X639307Y291328D01*
X638163Y290184D01*
X638163Y286752D01*
X640451Y294236D02*
X645027Y294236D01*
X640451Y294236D02*
X638163Y296524D01*
X640451Y298812D01*
X645027Y298812D01*
X641595Y298812D02*
X641595Y294236D01*
X650307Y283844D02*
X649163Y282700D01*
X649163Y280412D01*
X650307Y279268D01*
X651451Y279268D01*
X652595Y280412D01*
X652595Y282700D01*
X653739Y283844D01*
X654883Y283844D01*
X656027Y282700D01*
X656027Y280412D01*
X654883Y279268D01*
X649163Y290184D02*
X650307Y291328D01*
X649163Y290184D02*
X649163Y287896D01*
X650307Y286752D01*
X654883Y286752D01*
X656027Y287896D01*
X656027Y290184D01*
X654883Y291328D01*
X656027Y294236D02*
X649163Y294236D01*
X656027Y294236D02*
X656027Y298812D01*
D12*
X659000Y296000D02*
X659000Y288000D01*
X659000Y296000D02*
X667000Y304000D01*
D13*
X380380Y285740D03*
D14*
X394550Y285740D03*
D15*
X420940Y285740D03*
D16*
X380510Y286000D03*
D17*
X395460Y286000D03*
D18*
X420810Y286000D03*
D19*
X380770Y286260D03*
D13*
X395980Y286260D03*
D20*
X420810Y286260D03*
D21*
X381030Y286520D03*
D22*
X396240Y286520D03*
D23*
X420810Y286520D03*
D24*
X381160Y286780D03*
D25*
X396370Y286780D03*
D26*
X420810Y286780D03*
D27*
X381290Y287040D03*
D28*
X396630Y287040D03*
D21*
X420810Y287040D03*
D26*
X381550Y287300D03*
D29*
X396760Y287300D03*
D19*
X420810Y287300D03*
D14*
X381810Y287560D03*
D30*
X396890Y287560D03*
D16*
X420810Y287560D03*
D31*
X381940Y287820D03*
D32*
X397020Y287820D03*
D25*
X420810Y287820D03*
D33*
X382200Y288080D03*
D34*
X397150Y288080D03*
D28*
X420810Y288080D03*
D35*
X370890Y288340D03*
D36*
X382330Y288340D03*
D37*
X397280Y288340D03*
D30*
X420810Y288340D03*
D38*
X371020Y288600D03*
D39*
X382460Y288600D03*
D40*
X397540Y288600D03*
D32*
X420940Y288600D03*
D41*
X371150Y288860D03*
D42*
X382720Y288860D03*
D40*
X397540Y288860D03*
D34*
X420810Y288860D03*
D43*
X371410Y289120D03*
D44*
X382980Y289120D03*
D45*
X397800Y289120D03*
D46*
X420810Y289120D03*
D47*
X371670Y289380D03*
D48*
X383110Y289380D03*
D49*
X397930Y289380D03*
D50*
X420810Y289380D03*
D51*
X371800Y289640D03*
D52*
X383240Y289640D03*
D53*
X398060Y289640D03*
D49*
X420810Y289640D03*
D54*
X372060Y289900D03*
D55*
X383500Y289900D03*
D56*
X398190Y289900D03*
D49*
X420810Y289900D03*
D57*
X372320Y290160D03*
D58*
X383760Y290160D03*
D56*
X398190Y290160D03*
D20*
X416390Y290160D03*
X425230Y290160D03*
D59*
X372450Y290420D03*
D60*
X392470Y290420D03*
D44*
X403260Y290420D03*
D18*
X416130Y290420D03*
D48*
X425750Y290420D03*
D15*
X372580Y290680D03*
D60*
X392470Y290680D03*
D18*
X403650Y290680D03*
D58*
X416000Y290680D03*
D52*
X426140Y290680D03*
D61*
X372710Y290940D03*
D60*
X392470Y290940D03*
D18*
X403910Y290940D03*
D62*
X416000Y290940D03*
D55*
X426400Y290940D03*
D60*
X372970Y291200D03*
X392470Y291200D03*
D63*
X404170Y291200D03*
D57*
X416000Y291200D03*
D55*
X426660Y291200D03*
D60*
X372970Y291460D03*
X392470Y291460D03*
D63*
X404430Y291460D03*
D64*
X415870Y291460D03*
D63*
X426790Y291460D03*
D60*
X372970Y291720D03*
X392470Y291720D03*
D63*
X404430Y291720D03*
D51*
X416000Y291720D03*
D58*
X426920Y291720D03*
D60*
X372970Y291980D03*
X392470Y291980D03*
D58*
X404560Y291980D03*
D47*
X416130Y291980D03*
D58*
X427180Y291980D03*
D60*
X372970Y292240D03*
X392470Y292240D03*
X404690Y292240D03*
D43*
X416130Y292240D03*
D58*
X427180Y292240D03*
D60*
X372970Y292500D03*
X392470Y292500D03*
D58*
X404820Y292500D03*
D41*
X416130Y292500D03*
D60*
X427310Y292500D03*
X372970Y292760D03*
X392470Y292760D03*
X404950Y292760D03*
D38*
X416260Y292760D03*
D60*
X427310Y292760D03*
X372970Y293020D03*
X392470Y293020D03*
X404950Y293020D03*
D35*
X416390Y293020D03*
D58*
X427440Y293020D03*
D60*
X372970Y293280D03*
X392470Y293280D03*
X404950Y293280D03*
X427570Y293280D03*
X372970Y293540D03*
X392470Y293540D03*
X404950Y293540D03*
X427570Y293540D03*
X372970Y293800D03*
X392470Y293800D03*
X404950Y293800D03*
X427570Y293800D03*
X372970Y294060D03*
X392470Y294060D03*
X404950Y294060D03*
X427570Y294060D03*
X372970Y294320D03*
X392470Y294320D03*
X404950Y294320D03*
X427570Y294320D03*
X372970Y294580D03*
X392470Y294580D03*
X404950Y294580D03*
X427570Y294580D03*
X372970Y294840D03*
X392470Y294840D03*
X404950Y294840D03*
D65*
X411840Y294840D03*
D60*
X427570Y294840D03*
X372970Y295100D03*
X392470Y295100D03*
X404950Y295100D03*
D35*
X411970Y295100D03*
D60*
X427570Y295100D03*
X372970Y295360D03*
X392470Y295360D03*
X404950Y295360D03*
D41*
X412230Y295360D03*
D60*
X427570Y295360D03*
X372970Y295620D03*
X392470Y295620D03*
X404950Y295620D03*
D66*
X412360Y295620D03*
D60*
X427570Y295620D03*
X372970Y295880D03*
X392470Y295880D03*
X404950Y295880D03*
D43*
X412490Y295880D03*
D60*
X427570Y295880D03*
X372970Y296140D03*
X392470Y296140D03*
X404950Y296140D03*
D67*
X412620Y296140D03*
D60*
X427570Y296140D03*
X372970Y296400D03*
D62*
X392600Y296400D03*
D60*
X404950Y296400D03*
D47*
X412750Y296400D03*
D60*
X427570Y296400D03*
X372970Y296660D03*
D15*
X392860Y296660D03*
D60*
X404950Y296660D03*
D51*
X412880Y296660D03*
D60*
X427570Y296660D03*
X372970Y296920D03*
D57*
X393120Y296920D03*
D60*
X404950Y296920D03*
D54*
X413140Y296920D03*
D60*
X427570Y296920D03*
X372970Y297180D03*
D64*
X393250Y297180D03*
D60*
X404950Y297180D03*
D64*
X413270Y297180D03*
D60*
X427570Y297180D03*
X372970Y297440D03*
D54*
X393380Y297440D03*
D60*
X404950Y297440D03*
D57*
X413400Y297440D03*
D60*
X427570Y297440D03*
X372970Y297700D03*
D51*
X393640Y297700D03*
D60*
X404950Y297700D03*
D59*
X413530Y297700D03*
D60*
X427570Y297700D03*
X372970Y297960D03*
D67*
X393900Y297960D03*
D60*
X404950Y297960D03*
X427570Y297960D03*
X372970Y298220D03*
D43*
X394030Y298220D03*
D60*
X404950Y298220D03*
X427570Y298220D03*
X372970Y298480D03*
D66*
X394160Y298480D03*
D60*
X404950Y298480D03*
X427570Y298480D03*
X372970Y298740D03*
D38*
X394420Y298740D03*
D60*
X404950Y298740D03*
X427570Y298740D03*
X372970Y299000D03*
D65*
X394680Y299000D03*
D60*
X404950Y299000D03*
X427570Y299000D03*
X372970Y299260D03*
X404950Y299260D03*
X427570Y299260D03*
X372970Y299520D03*
X404950Y299520D03*
X427570Y299520D03*
X372970Y299780D03*
X404950Y299780D03*
X427570Y299780D03*
X372970Y300040D03*
X404950Y300040D03*
X427570Y300040D03*
X372970Y300300D03*
X404950Y300300D03*
X427570Y300300D03*
X372970Y300560D03*
X404950Y300560D03*
X427570Y300560D03*
X372970Y300820D03*
X404950Y300820D03*
X427570Y300820D03*
X372970Y301080D03*
X404950Y301080D03*
D61*
X427570Y301080D03*
D60*
X372970Y301340D03*
D65*
X390260Y301340D03*
D60*
X404950Y301340D03*
D15*
X427700Y301340D03*
D60*
X372970Y301600D03*
D38*
X390520Y301600D03*
D60*
X404950Y301600D03*
D59*
X427830Y301600D03*
D60*
X372970Y301860D03*
D66*
X390780Y301860D03*
D60*
X404950Y301860D03*
D64*
X428090Y301860D03*
D60*
X372970Y302120D03*
D43*
X390910Y302120D03*
D60*
X404950Y302120D03*
D54*
X428220Y302120D03*
D60*
X372970Y302380D03*
D47*
X391170Y302380D03*
D60*
X404950Y302380D03*
D51*
X428220Y302380D03*
D60*
X372970Y302640D03*
D51*
X391300Y302640D03*
D60*
X404950Y302640D03*
D47*
X428350Y302640D03*
D60*
X372970Y302900D03*
D54*
X391560Y302900D03*
D60*
X404950Y302900D03*
D43*
X428350Y302900D03*
D37*
X377780Y303160D03*
D64*
X391690Y303160D03*
D60*
X404950Y303160D03*
D66*
X428480Y303160D03*
D37*
X377780Y303420D03*
D57*
X391820Y303420D03*
D60*
X404950Y303420D03*
D35*
X428610Y303420D03*
D37*
X377780Y303680D03*
D15*
X392080Y303680D03*
D60*
X404950Y303680D03*
D54*
X420940Y303680D03*
D65*
X428740Y303680D03*
D37*
X377780Y303940D03*
D62*
X392340Y303940D03*
D60*
X404950Y303940D03*
D61*
X420290Y303940D03*
D37*
X377780Y304200D03*
D60*
X392470Y304200D03*
X404950Y304200D03*
D55*
X420160Y304200D03*
D37*
X377780Y304460D03*
D60*
X392470Y304460D03*
X404950Y304460D03*
D44*
X419900Y304460D03*
D37*
X377780Y304720D03*
D60*
X392470Y304720D03*
D61*
X405210Y304720D03*
D20*
X419770Y304720D03*
D37*
X377780Y304980D03*
D60*
X392470Y304980D03*
D15*
X405340Y304980D03*
D33*
X419900Y304980D03*
D37*
X377780Y305240D03*
D60*
X392470Y305240D03*
D59*
X405470Y305240D03*
D31*
X419640Y305240D03*
D37*
X377780Y305500D03*
D60*
X392470Y305500D03*
D64*
X405730Y305500D03*
D26*
X419770Y305500D03*
D37*
X377780Y305760D03*
D60*
X392470Y305760D03*
D68*
X405990Y305760D03*
D24*
X419640Y305760D03*
D30*
X378170Y306020D03*
D60*
X392470Y306020D03*
D51*
X406120Y306020D03*
D17*
X419640Y306020D03*
D28*
X378430Y306280D03*
D60*
X392470Y306280D03*
D67*
X406380Y306280D03*
D69*
X419640Y306280D03*
D25*
X378690Y306540D03*
D60*
X392470Y306540D03*
D43*
X406510Y306540D03*
D13*
X419640Y306540D03*
D70*
X378950Y306800D03*
D60*
X392470Y306800D03*
D41*
X406770Y306800D03*
D13*
X419380Y306800D03*
D69*
X379340Y307060D03*
D60*
X392470Y307060D03*
D38*
X406900Y307060D03*
D69*
X419120Y307060D03*
D17*
X379600Y307320D03*
D60*
X392470Y307320D03*
D65*
X407160Y307320D03*
D19*
X418730Y307320D03*
D24*
X379860Y307580D03*
D60*
X392470Y307580D03*
D21*
X418210Y307580D03*
D60*
X392470Y307840D03*
D71*
X417560Y307840D03*
D60*
X392470Y308100D03*
D36*
X416650Y308100D03*
D60*
X392470Y308360D03*
D72*
X415870Y308360D03*
D60*
X392470Y308620D03*
D48*
X415610Y308620D03*
D60*
X392470Y308880D03*
D52*
X415220Y308880D03*
D60*
X392470Y309140D03*
D55*
X414960Y309140D03*
D60*
X392470Y309400D03*
D65*
X402740Y309400D03*
D63*
X414830Y309400D03*
D60*
X392470Y309660D03*
D35*
X402870Y309660D03*
D63*
X414570Y309660D03*
D60*
X392470Y309920D03*
D38*
X403000Y309920D03*
D58*
X414440Y309920D03*
D35*
X370890Y310180D03*
D60*
X392470Y310180D03*
D66*
X403260Y310180D03*
D58*
X414440Y310180D03*
D41*
X371150Y310440D03*
D60*
X392470Y310440D03*
D43*
X403390Y310440D03*
D60*
X414310Y310440D03*
D43*
X371410Y310700D03*
D60*
X392470Y310700D03*
D47*
X403650Y310700D03*
D62*
X414440Y310700D03*
D47*
X371670Y310960D03*
D60*
X392470Y310960D03*
D51*
X403780Y310960D03*
D61*
X414310Y310960D03*
D54*
X372060Y311220D03*
D60*
X392470Y311220D03*
D54*
X404040Y311220D03*
D59*
X414570Y311220D03*
D57*
X372320Y311480D03*
D60*
X392470Y311480D03*
D57*
X404300Y311480D03*
D64*
X414830Y311480D03*
D15*
X372580Y311740D03*
D60*
X392470Y311740D03*
D59*
X404430Y311740D03*
D68*
X415090Y311740D03*
D62*
X372840Y312000D03*
D60*
X392470Y312000D03*
D15*
X404560Y312000D03*
D68*
X415090Y312000D03*
D60*
X372970Y312260D03*
X392470Y312260D03*
D62*
X404820Y312260D03*
D47*
X415350Y312260D03*
D60*
X372970Y312520D03*
X392470Y312520D03*
X404950Y312520D03*
D43*
X415610Y312520D03*
D60*
X372970Y312780D03*
X392470Y312780D03*
X404950Y312780D03*
D66*
X415740Y312780D03*
D60*
X372970Y313040D03*
X392470Y313040D03*
X404950Y313040D03*
D38*
X416000Y313040D03*
D60*
X372970Y313300D03*
X392470Y313300D03*
X404950Y313300D03*
D65*
X416260Y313300D03*
D60*
X372970Y313560D03*
X392470Y313560D03*
X404950Y313560D03*
X372970Y313820D03*
X392470Y313820D03*
X404950Y313820D03*
X427570Y313820D03*
X372970Y314080D03*
X392470Y314080D03*
X404950Y314080D03*
X427570Y314080D03*
X372970Y314340D03*
X392470Y314340D03*
X404950Y314340D03*
X427570Y314340D03*
X372970Y314600D03*
D61*
X392730Y314600D03*
D60*
X404950Y314600D03*
X427570Y314600D03*
X372970Y314860D03*
D59*
X392990Y314860D03*
D60*
X404950Y314860D03*
X427570Y314860D03*
X372970Y315120D03*
D54*
X393380Y315120D03*
D60*
X404950Y315120D03*
X427570Y315120D03*
X372970Y315380D03*
D51*
X393640Y315380D03*
D60*
X404950Y315380D03*
X427570Y315380D03*
X372970Y315640D03*
D67*
X393900Y315640D03*
D60*
X404950Y315640D03*
D65*
X411840Y315640D03*
D60*
X427570Y315640D03*
X372970Y315900D03*
D66*
X394160Y315900D03*
D60*
X404950Y315900D03*
D38*
X412100Y315900D03*
D60*
X427570Y315900D03*
X372970Y316160D03*
D35*
X394550Y316160D03*
D60*
X404950Y316160D03*
D66*
X412360Y316160D03*
D60*
X427570Y316160D03*
X372970Y316420D03*
X404950Y316420D03*
D67*
X412620Y316420D03*
D60*
X427570Y316420D03*
X372970Y316680D03*
X404950Y316680D03*
D67*
X412620Y316680D03*
D60*
X427570Y316680D03*
X372970Y316940D03*
X404950Y316940D03*
D51*
X412880Y316940D03*
D60*
X427570Y316940D03*
X372970Y317200D03*
X404950Y317200D03*
D54*
X413140Y317200D03*
D60*
X427570Y317200D03*
X372970Y317460D03*
X404950Y317460D03*
D64*
X413270Y317460D03*
D60*
X427570Y317460D03*
X372970Y317720D03*
X404950Y317720D03*
D57*
X413400Y317720D03*
D60*
X427570Y317720D03*
D62*
X373100Y317980D03*
D60*
X404950Y317980D03*
D15*
X413660Y317980D03*
D60*
X427570Y317980D03*
D15*
X373360Y318240D03*
D60*
X404950Y318240D03*
D62*
X413920Y318240D03*
D60*
X427570Y318240D03*
D57*
X373620Y318500D03*
D60*
X404950Y318500D03*
X414050Y318500D03*
X427570Y318500D03*
D54*
X373880Y318760D03*
D65*
X390260Y318760D03*
D60*
X404950Y318760D03*
X414310Y318760D03*
X427570Y318760D03*
D47*
X374270Y319020D03*
D38*
X390520Y319020D03*
D60*
X404950Y319020D03*
X414310Y319020D03*
X427310Y319020D03*
D43*
X374530Y319280D03*
X390910Y319280D03*
D60*
X404950Y319280D03*
X414310Y319280D03*
X427310Y319280D03*
D41*
X374790Y319540D03*
D47*
X391170Y319540D03*
D58*
X404820Y319540D03*
X414440Y319540D03*
D61*
X427570Y319540D03*
D35*
X375050Y319800D03*
D68*
X391430Y319800D03*
D60*
X404690Y319800D03*
D63*
X414570Y319800D03*
D15*
X427700Y319800D03*
D64*
X391690Y320060D03*
D15*
X405080Y320060D03*
D58*
X414700Y320060D03*
D64*
X427830Y320060D03*
D15*
X392080Y320320D03*
D57*
X405340Y320320D03*
D63*
X414830Y320320D03*
D54*
X427960Y320320D03*
D62*
X392340Y320580D03*
D54*
X405600Y320580D03*
D55*
X414960Y320580D03*
D68*
X428090Y320580D03*
D60*
X392470Y320840D03*
D47*
X405730Y320840D03*
D18*
X415350Y320840D03*
D67*
X428220Y320840D03*
D60*
X392470Y321100D03*
D66*
X406120Y321100D03*
D52*
X415480Y321100D03*
D66*
X428480Y321100D03*
D60*
X392470Y321360D03*
D35*
X406250Y321360D03*
D48*
X415870Y321360D03*
D41*
X428610Y321360D03*
D60*
X392470Y321620D03*
D42*
X416260Y321620D03*
D35*
X428610Y321620D03*
D72*
X382850Y321880D03*
D20*
X393770Y321880D03*
D31*
X417300Y321880D03*
D52*
X383240Y322140D03*
D36*
X394030Y322140D03*
D14*
X417430Y322140D03*
D35*
X370890Y322400D03*
D55*
X383500Y322400D03*
D31*
X394420Y322400D03*
D73*
X417820Y322400D03*
D41*
X371150Y322660D03*
D58*
X383760Y322660D03*
D73*
X394680Y322660D03*
X418080Y322660D03*
D43*
X371410Y322920D03*
D62*
X384020Y322920D03*
D71*
X394940Y322920D03*
D73*
X418340Y322920D03*
D51*
X371800Y323180D03*
D59*
X384410Y323180D03*
D24*
X395200Y323180D03*
D27*
X418730Y323180D03*
D54*
X372060Y323440D03*
D64*
X384670Y323440D03*
D19*
X395590Y323440D03*
D71*
X418860Y323440D03*
D57*
X372320Y323700D03*
D68*
X384930Y323700D03*
D16*
X395850Y323700D03*
D27*
X419250Y323700D03*
D15*
X372580Y323960D03*
D67*
X385320Y323960D03*
D70*
X396110Y323960D03*
D24*
X419640Y323960D03*
D60*
X372970Y324220D03*
D66*
X385580Y324220D03*
D25*
X396370Y324220D03*
D24*
X419900Y324220D03*
D63*
X373230Y324480D03*
D38*
X385840Y324480D03*
D29*
X396760Y324480D03*
D27*
X420290Y324480D03*
D18*
X373490Y324740D03*
D65*
X386100Y324740D03*
D30*
X396890Y324740D03*
D24*
X420680Y324740D03*
D48*
X373750Y325000D03*
D29*
X396760Y325000D03*
D26*
X420810Y325000D03*
D42*
X374140Y325260D03*
D74*
X396500Y325260D03*
D31*
X420940Y325260D03*
D39*
X374400Y325520D03*
D22*
X396240Y325520D03*
D20*
X420810Y325520D03*
D33*
X374660Y325780D03*
D16*
X395850Y325780D03*
D52*
X420940Y325780D03*
D31*
X374920Y326040D03*
D17*
X395460Y326040D03*
D61*
X420810Y326040D03*
D26*
X375310Y326300D03*
D47*
X391170Y326300D03*
D11*
X466448Y316353D02*
X468736Y316353D01*
X467592Y316353D02*
X467592Y323217D01*
X466448Y323217D02*
X468736Y323217D01*
X472581Y323217D02*
X474869Y323217D01*
X472581Y323217D02*
X471437Y322073D01*
X471437Y317497D01*
X472581Y316353D01*
X474869Y316353D01*
X476013Y317497D01*
X476013Y322073D01*
X474869Y323217D01*
X478922Y322073D02*
X480066Y323217D01*
X482354Y323217D01*
X483498Y322073D01*
X483498Y320929D01*
X482354Y319785D01*
X481210Y319785D01*
X482354Y319785D02*
X483498Y318641D01*
X483498Y317497D01*
X482354Y316353D01*
X480066Y316353D01*
X478922Y317497D01*
X486406Y323217D02*
X490982Y323217D01*
X486406Y323217D02*
X486406Y319785D01*
X488694Y320929D01*
X489838Y320929D01*
X490982Y319785D01*
X490982Y317497D01*
X489838Y316353D01*
X487550Y316353D01*
X486406Y317497D01*
D75*
X40103Y313508D02*
X40103Y300783D01*
X40103Y313508D02*
X46465Y313508D01*
X48586Y311387D01*
X48586Y309266D01*
X46465Y307145D01*
X48586Y305025D01*
X48586Y302904D01*
X46465Y300783D01*
X40103Y300783D01*
X40103Y307145D02*
X46465Y307145D01*
X53915Y309266D02*
X53915Y300783D01*
X53915Y305025D02*
X58156Y309266D01*
X60277Y309266D01*
X65425Y309266D02*
X67545Y309266D01*
X67545Y300783D01*
X65425Y300783D02*
X69666Y300783D01*
X67545Y313508D02*
X67545Y315629D01*
X74632Y309266D02*
X74632Y300783D01*
X74632Y309266D02*
X76753Y309266D01*
X78874Y307145D01*
X78874Y300783D01*
X78874Y307145D02*
X80995Y309266D01*
X83116Y307145D01*
X83116Y300783D01*
X88444Y313508D02*
X96927Y313508D01*
X88444Y313508D02*
X88444Y300783D01*
X96927Y300783D01*
X92686Y307145D02*
X88444Y307145D01*
X104377Y311387D02*
X104377Y300783D01*
X104377Y311387D02*
X106498Y313508D01*
X106498Y307145D02*
X102256Y307145D01*
X113585Y311387D02*
X113585Y300783D01*
X113585Y311387D02*
X115705Y313508D01*
X115705Y307145D02*
X111464Y307145D01*
X122793Y300783D02*
X127034Y300783D01*
X122793Y300783D02*
X120672Y302904D01*
X120672Y307145D01*
X122793Y309266D01*
X127034Y309266D01*
X129155Y307145D01*
X129155Y305025D01*
X120672Y305025D01*
X136604Y309266D02*
X142967Y309266D01*
X136604Y309266D02*
X134483Y307145D01*
X134483Y302904D01*
X136604Y300783D01*
X142967Y300783D01*
X150416Y302904D02*
X150416Y311387D01*
X150416Y302904D02*
X152537Y300783D01*
X152537Y309266D02*
X148295Y309266D01*
X171315Y309266D02*
X175557Y300783D01*
X179798Y309266D01*
X185127Y309266D02*
X189368Y313508D01*
X189368Y300783D01*
X185127Y300783D02*
X193610Y300783D01*
D76*
X381988Y145578D02*
X396488Y145578D01*
X396488Y152578D02*
X381988Y152578D01*
D77*
X395488Y149078D03*
X382988Y149078D03*
D11*
X409832Y149473D02*
X410976Y148329D01*
X409832Y149473D02*
X407544Y149473D01*
X406400Y148329D01*
X406400Y143753D01*
X407544Y142610D01*
X409832Y142610D01*
X410976Y143753D01*
X413884Y142610D02*
X418460Y142610D01*
X418460Y147185D02*
X413884Y142610D01*
X418460Y147185D02*
X418460Y148329D01*
X417316Y149473D01*
X415028Y149473D01*
X413884Y148329D01*
D76*
X396808Y127976D02*
X382308Y127976D01*
X382308Y134976D02*
X396808Y134976D01*
D77*
X395808Y131476D03*
X383308Y131476D03*
D11*
X410152Y133871D02*
X411296Y132727D01*
X410152Y133871D02*
X407864Y133871D01*
X406720Y132727D01*
X406720Y128151D01*
X407864Y127008D01*
X410152Y127008D01*
X411296Y128151D01*
X414204Y132727D02*
X415348Y133871D01*
X417636Y133871D01*
X418780Y132727D01*
X418780Y131583D01*
X417636Y130439D01*
X416492Y130439D01*
X417636Y130439D02*
X418780Y129295D01*
X418780Y128151D01*
X417636Y127008D01*
X415348Y127008D01*
X414204Y128151D01*
D76*
X269134Y118968D02*
X254634Y118968D01*
X254634Y111968D02*
X269134Y111968D01*
D77*
X255634Y115468D03*
X268134Y115468D03*
D11*
X272367Y130606D02*
X271223Y131750D01*
X268935Y131750D01*
X267792Y130606D01*
X267792Y126030D01*
X268935Y124886D01*
X271223Y124886D01*
X272367Y126030D01*
X275276Y131750D02*
X279852Y131750D01*
X275276Y131750D02*
X275276Y128318D01*
X277564Y129462D01*
X278708Y129462D01*
X279852Y128318D01*
X279852Y126030D01*
X278708Y124886D01*
X276420Y124886D01*
X275276Y126030D01*
D78*
X340975Y104300D02*
X345975Y104300D01*
X345975Y99300D01*
X345975Y56300D02*
X339975Y56300D01*
X345975Y56300D02*
X345975Y61300D01*
X302975Y56300D02*
X297975Y56300D01*
X297975Y61300D01*
X292448Y107288D02*
X292450Y107388D01*
X292456Y107489D01*
X292466Y107588D01*
X292480Y107688D01*
X292497Y107787D01*
X292519Y107885D01*
X292545Y107982D01*
X292574Y108078D01*
X292607Y108172D01*
X292644Y108266D01*
X292684Y108358D01*
X292728Y108448D01*
X292776Y108536D01*
X292827Y108623D01*
X292881Y108707D01*
X292939Y108789D01*
X293000Y108869D01*
X293064Y108946D01*
X293131Y109021D01*
X293201Y109093D01*
X293274Y109162D01*
X293349Y109228D01*
X293427Y109292D01*
X293507Y109352D01*
X293590Y109409D01*
X293675Y109462D01*
X293762Y109512D01*
X293851Y109559D01*
X293941Y109602D01*
X294033Y109642D01*
X294127Y109678D01*
X294222Y109710D01*
X294318Y109738D01*
X294416Y109763D01*
X294514Y109783D01*
X294613Y109800D01*
X294713Y109813D01*
X294812Y109822D01*
X294913Y109827D01*
X295013Y109828D01*
X295113Y109825D01*
X295214Y109818D01*
X295313Y109807D01*
X295413Y109792D01*
X295511Y109774D01*
X295609Y109751D01*
X295706Y109724D01*
X295801Y109694D01*
X295896Y109660D01*
X295989Y109622D01*
X296080Y109581D01*
X296170Y109536D01*
X296258Y109488D01*
X296344Y109436D01*
X296428Y109381D01*
X296509Y109322D01*
X296588Y109260D01*
X296665Y109196D01*
X296739Y109128D01*
X296810Y109057D01*
X296879Y108984D01*
X296944Y108908D01*
X297007Y108829D01*
X297066Y108748D01*
X297122Y108665D01*
X297175Y108580D01*
X297224Y108492D01*
X297270Y108403D01*
X297312Y108312D01*
X297351Y108219D01*
X297386Y108125D01*
X297417Y108030D01*
X297445Y107933D01*
X297468Y107836D01*
X297488Y107737D01*
X297504Y107638D01*
X297516Y107539D01*
X297524Y107438D01*
X297528Y107338D01*
X297528Y107238D01*
X297524Y107138D01*
X297516Y107037D01*
X297504Y106938D01*
X297488Y106839D01*
X297468Y106740D01*
X297445Y106643D01*
X297417Y106546D01*
X297386Y106451D01*
X297351Y106357D01*
X297312Y106264D01*
X297270Y106173D01*
X297224Y106084D01*
X297175Y105996D01*
X297122Y105911D01*
X297066Y105828D01*
X297007Y105747D01*
X296944Y105668D01*
X296879Y105592D01*
X296810Y105519D01*
X296739Y105448D01*
X296665Y105380D01*
X296588Y105316D01*
X296509Y105254D01*
X296428Y105195D01*
X296344Y105140D01*
X296258Y105088D01*
X296170Y105040D01*
X296080Y104995D01*
X295989Y104954D01*
X295896Y104916D01*
X295801Y104882D01*
X295706Y104852D01*
X295609Y104825D01*
X295511Y104802D01*
X295413Y104784D01*
X295313Y104769D01*
X295214Y104758D01*
X295113Y104751D01*
X295013Y104748D01*
X294913Y104749D01*
X294812Y104754D01*
X294713Y104763D01*
X294613Y104776D01*
X294514Y104793D01*
X294416Y104813D01*
X294318Y104838D01*
X294222Y104866D01*
X294127Y104898D01*
X294033Y104934D01*
X293941Y104974D01*
X293851Y105017D01*
X293762Y105064D01*
X293675Y105114D01*
X293590Y105167D01*
X293507Y105224D01*
X293427Y105284D01*
X293349Y105348D01*
X293274Y105414D01*
X293201Y105483D01*
X293131Y105555D01*
X293064Y105630D01*
X293000Y105707D01*
X292939Y105787D01*
X292881Y105869D01*
X292827Y105953D01*
X292776Y106040D01*
X292728Y106128D01*
X292684Y106218D01*
X292644Y106310D01*
X292607Y106404D01*
X292574Y106498D01*
X292545Y106594D01*
X292519Y106691D01*
X292497Y106789D01*
X292480Y106888D01*
X292466Y106988D01*
X292456Y107087D01*
X292450Y107188D01*
X292448Y107288D01*
D11*
X294405Y114797D02*
X296693Y114797D01*
X295549Y114797D02*
X295549Y121660D01*
X294405Y121660D02*
X296693Y121660D01*
X302826Y121660D02*
X303970Y120516D01*
X302826Y121660D02*
X300538Y121660D01*
X299394Y120516D01*
X299394Y115940D01*
X300538Y114797D01*
X302826Y114797D01*
X303970Y115940D01*
X306878Y119372D02*
X309166Y121660D01*
X309166Y114797D01*
X306878Y114797D02*
X311454Y114797D01*
D79*
X330355Y153583D02*
X338995Y153583D01*
X338995Y146463D02*
X330355Y146463D01*
D80*
X328325Y150023D03*
X341025Y150023D03*
D11*
X351630Y147374D02*
X351630Y154238D01*
X355062Y154238D01*
X356206Y153094D01*
X356206Y150806D01*
X355062Y149662D01*
X351630Y149662D01*
X353918Y149662D02*
X356206Y147374D01*
X359114Y153094D02*
X360258Y154238D01*
X362546Y154238D01*
X363690Y153094D01*
X363690Y151950D01*
X362546Y150806D01*
X361402Y150806D01*
X362546Y150806D02*
X363690Y149662D01*
X363690Y148518D01*
X362546Y147374D01*
X360258Y147374D01*
X359114Y148518D01*
D79*
X338995Y131422D02*
X330355Y131422D01*
X330355Y124302D02*
X338995Y124302D01*
D80*
X328325Y127862D03*
X341025Y127862D03*
D11*
X351981Y124782D02*
X351981Y131646D01*
X355413Y131646D01*
X356557Y130502D01*
X356557Y128214D01*
X355413Y127070D01*
X351981Y127070D01*
X354269Y127070D02*
X356557Y124782D01*
X362897Y124782D02*
X362897Y131646D01*
X359465Y128214D01*
X364041Y128214D01*
D79*
X245352Y64130D02*
X236712Y64130D01*
X236712Y71250D02*
X245352Y71250D01*
D80*
X247382Y67690D03*
X234682Y67690D03*
D11*
X160151Y51427D02*
X153287Y51427D01*
X153287Y54859D01*
X154431Y56003D01*
X156719Y56003D01*
X157863Y54859D01*
X157863Y51427D01*
X157863Y53715D02*
X160151Y56003D01*
X153287Y58911D02*
X153287Y63487D01*
X153287Y58911D02*
X156719Y58911D01*
X155575Y61199D01*
X155575Y62343D01*
X156719Y63487D01*
X159007Y63487D01*
X160151Y62343D01*
X160151Y60055D01*
X159007Y58911D01*
D79*
X236712Y80005D02*
X245352Y80005D01*
X245352Y87125D02*
X236712Y87125D01*
D80*
X247382Y83565D03*
X234682Y83565D03*
D11*
X160913Y79621D02*
X154049Y79621D01*
X154049Y83053D01*
X155193Y84197D01*
X157481Y84197D01*
X158625Y83053D01*
X158625Y79621D01*
X158625Y81909D02*
X160913Y84197D01*
X155193Y89393D02*
X154049Y91681D01*
X155193Y89393D02*
X157481Y87105D01*
X159769Y87105D01*
X160913Y88249D01*
X160913Y90537D01*
X159769Y91681D01*
X158625Y91681D01*
X157481Y90537D01*
X157481Y87105D01*
D78*
X566630Y230211D02*
X566630Y257981D01*
X576900Y257981D01*
X566630Y103211D02*
X566630Y75441D01*
X576900Y75441D01*
X754010Y257981D02*
X760670Y257981D01*
X760670Y75441D02*
X754010Y75441D01*
X760670Y75441D02*
X760670Y257981D01*
D11*
X562136Y84862D02*
X556416Y84862D01*
X562136Y84862D02*
X563280Y86006D01*
X563280Y88294D01*
X562136Y89438D01*
X556416Y89438D01*
X563280Y92346D02*
X563280Y96922D01*
X563280Y92346D02*
X558704Y96922D01*
X557560Y96922D01*
X556416Y95778D01*
X556416Y93490D01*
X557560Y92346D01*
D79*
X498673Y141959D02*
X490033Y141959D01*
X490033Y134839D02*
X498673Y134839D01*
D80*
X488003Y138399D03*
X500703Y138399D03*
D11*
X484273Y127005D02*
X484273Y120142D01*
X484273Y127005D02*
X487704Y127005D01*
X488848Y125861D01*
X488848Y123573D01*
X487704Y122429D01*
X484273Y122429D01*
X486560Y122429D02*
X488848Y120142D01*
X491757Y120142D02*
X496333Y120142D01*
X496333Y124717D02*
X491757Y120142D01*
X496333Y124717D02*
X496333Y125861D01*
X495189Y127005D01*
X492901Y127005D01*
X491757Y125861D01*
X499241Y127005D02*
X503817Y127005D01*
X499241Y127005D02*
X499241Y123573D01*
X501529Y124717D01*
X502673Y124717D01*
X503817Y123573D01*
X503817Y121285D01*
X502673Y120142D01*
X500385Y120142D01*
X499241Y121285D01*
D76*
X524858Y138620D02*
X524858Y153120D01*
X517858Y153120D02*
X517858Y138620D01*
D81*
X521358Y152120D03*
X521358Y139620D03*
D11*
X519738Y112571D02*
X518594Y111427D01*
X518594Y109139D01*
X519738Y107995D01*
X524314Y107995D01*
X525458Y109139D01*
X525458Y111427D01*
X524314Y112571D01*
X520882Y115479D02*
X518594Y117767D01*
X525458Y117767D01*
X525458Y115479D02*
X525458Y120055D01*
X519738Y125251D02*
X518594Y127539D01*
X519738Y125251D02*
X522026Y122963D01*
X524314Y122963D01*
X525458Y124107D01*
X525458Y126395D01*
X524314Y127539D01*
X523170Y127539D01*
X522026Y126395D01*
X522026Y122963D01*
D79*
X356045Y39410D02*
X347405Y39410D01*
X347405Y32290D02*
X356045Y32290D01*
D80*
X345375Y35850D03*
X358075Y35850D03*
D11*
X314493Y38546D02*
X314493Y45409D01*
X317924Y45409D01*
X319068Y44265D01*
X319068Y41977D01*
X317924Y40833D01*
X314493Y40833D01*
X316780Y40833D02*
X319068Y38546D01*
X325409Y38546D02*
X325409Y45409D01*
X321977Y41977D01*
X326553Y41977D01*
X329461Y39689D02*
X329461Y44265D01*
X330605Y45409D01*
X332893Y45409D01*
X334037Y44265D01*
X334037Y39689D01*
X332893Y38546D01*
X330605Y38546D01*
X329461Y39689D01*
X334037Y44265D01*
D79*
X273965Y50580D02*
X273965Y59220D01*
X281085Y59220D02*
X281085Y50580D01*
D82*
X277525Y48550D03*
X277525Y61250D03*
D11*
X278160Y16065D02*
X271296Y16065D01*
X271296Y19496D01*
X272440Y20640D01*
X274728Y20640D01*
X275872Y19496D01*
X275872Y16065D01*
X275872Y18352D02*
X278160Y20640D01*
X278160Y26981D02*
X271296Y26981D01*
X274728Y23549D01*
X274728Y28125D01*
X278160Y31033D02*
X278160Y35609D01*
X278160Y31033D02*
X273584Y35609D01*
X272440Y35609D01*
X271296Y34465D01*
X271296Y32177D01*
X272440Y31033D01*
D79*
X262424Y37169D02*
X262424Y45809D01*
X255304Y45809D02*
X255304Y37169D01*
D82*
X258864Y47839D03*
X258864Y35139D03*
D11*
X254298Y3634D02*
X247434Y3634D01*
X247434Y7066D01*
X248578Y8210D01*
X250866Y8210D01*
X252010Y7066D01*
X252010Y3634D01*
X252010Y5922D02*
X254298Y8210D01*
X254298Y14550D02*
X247434Y14550D01*
X250866Y11118D01*
X250866Y15694D01*
X248578Y18602D02*
X247434Y19746D01*
X247434Y22034D01*
X248578Y23178D01*
X249722Y23178D01*
X250866Y22034D01*
X250866Y20890D01*
X250866Y22034D02*
X252010Y23178D01*
X253154Y23178D01*
X254298Y22034D01*
X254298Y19746D01*
X253154Y18602D01*
D79*
X347532Y18804D02*
X356172Y18804D01*
X356172Y11684D02*
X347532Y11684D01*
D80*
X345502Y15244D03*
X358202Y15244D03*
D11*
X314910Y14645D02*
X314910Y21509D01*
X318341Y21509D01*
X319485Y20365D01*
X319485Y18077D01*
X318341Y16933D01*
X314910Y16933D01*
X317197Y16933D02*
X319485Y14645D01*
X325826Y14645D02*
X325826Y21509D01*
X322394Y18077D01*
X326970Y18077D01*
X333310Y14645D02*
X333310Y21509D01*
X329878Y18077D01*
X334454Y18077D01*
D76*
X725066Y277651D02*
X725066Y292151D01*
X732066Y292151D02*
X732066Y277651D01*
D81*
X728566Y278651D03*
X728566Y291151D03*
D11*
X737952Y277223D02*
X736808Y276079D01*
X736808Y273791D01*
X737952Y272648D01*
X742528Y272648D01*
X743672Y273791D01*
X743672Y276079D01*
X742528Y277223D01*
X743672Y280132D02*
X743672Y284708D01*
X743672Y280132D02*
X739096Y284708D01*
X737952Y284708D01*
X736808Y283564D01*
X736808Y281276D01*
X737952Y280132D01*
X736808Y291048D02*
X743672Y291048D01*
X740240Y287616D02*
X736808Y291048D01*
X740240Y292192D02*
X740240Y287616D01*
D76*
X708937Y292151D02*
X708937Y277651D01*
X715937Y277651D02*
X715937Y292151D01*
D81*
X712437Y278651D03*
X712437Y291151D03*
D11*
X684026Y272112D02*
X682882Y270968D01*
X682882Y268680D01*
X684026Y267536D01*
X688602Y267536D01*
X689746Y268680D01*
X689746Y270968D01*
X688602Y272112D01*
X689746Y275020D02*
X689746Y279596D01*
X689746Y275020D02*
X685170Y279596D01*
X684026Y279596D01*
X682882Y278452D01*
X682882Y276164D01*
X684026Y275020D01*
X682882Y282504D02*
X682882Y287080D01*
X682882Y282504D02*
X686314Y282504D01*
X685170Y284792D01*
X685170Y285936D01*
X686314Y287080D01*
X688602Y287080D01*
X689746Y285936D01*
X689746Y283648D01*
X688602Y282504D01*
D79*
X223245Y109749D02*
X223245Y100541D01*
X223245Y109749D02*
X241693Y109749D01*
X241693Y100541D01*
X223245Y100541D01*
X223245Y109749D01*
X241693Y109749D01*
X241693Y100541D01*
X223245Y100541D01*
D83*
X238969Y113145D03*
X225969Y113145D03*
X232469Y97145D03*
D11*
X218410Y108454D02*
X211546Y108454D01*
X218410Y108454D02*
X218410Y111886D01*
X217266Y113030D01*
X212690Y113030D01*
X211546Y111886D01*
X211546Y108454D01*
X213834Y115939D02*
X211546Y118226D01*
X218410Y118226D01*
X218410Y115939D02*
X218410Y120514D01*
D79*
X242255Y49246D02*
X242255Y40038D01*
X223807Y40038D01*
X223807Y49246D01*
X242255Y49246D01*
X242255Y40038D01*
X223807Y40038D01*
X223807Y49246D01*
X242255Y49246D01*
D83*
X226531Y36642D03*
X239531Y36642D03*
X233031Y52642D03*
D11*
X223836Y27964D02*
X223836Y21100D01*
X227268Y21100D01*
X228412Y22244D01*
X228412Y26820D01*
X227268Y27964D01*
X223836Y27964D01*
X231320Y21100D02*
X235896Y21100D01*
X231320Y21100D02*
X235896Y25676D01*
X235896Y26820D01*
X234752Y27964D01*
X232464Y27964D01*
X231320Y26820D01*
D78*
X497922Y146815D02*
X497922Y252215D01*
X497922Y146815D02*
X427922Y146815D01*
X427922Y189515D01*
X427922Y209515D01*
X427922Y252215D01*
X497922Y252215D01*
X427922Y209515D02*
X422922Y209515D01*
X422922Y189515D01*
X427922Y189515D01*
D11*
X431396Y136629D02*
X432540Y135485D01*
X433684Y135485D01*
X434828Y136629D01*
X434828Y142348D01*
X433684Y142348D02*
X435972Y142348D01*
X441168Y142348D02*
X441168Y135485D01*
X438880Y142348D02*
X443456Y142348D01*
X446364Y140061D02*
X446364Y135485D01*
X446364Y140061D02*
X448652Y142348D01*
X450940Y140061D01*
X450940Y135485D01*
X450940Y138917D02*
X446364Y138917D01*
X457280Y142348D02*
X458424Y141204D01*
X457280Y142348D02*
X454992Y142348D01*
X453848Y141204D01*
X453848Y136629D01*
X454992Y135485D01*
X457280Y135485D01*
X458424Y136629D01*
X458424Y138917D01*
X456136Y138917D01*
X461332Y140061D02*
X463620Y142348D01*
X463620Y135485D01*
X461332Y135485D02*
X465908Y135485D01*
D78*
X373161Y87053D02*
X373161Y7053D01*
X373161Y87053D02*
X443161Y87053D01*
X443161Y57053D01*
X443161Y37053D01*
X443161Y7053D01*
X373161Y7053D01*
X443161Y37053D02*
X448161Y37053D01*
X448161Y57053D01*
X443161Y57053D01*
D11*
X375926Y91866D02*
X374783Y93009D01*
X375926Y91866D02*
X377070Y91866D01*
X378214Y93009D01*
X378214Y98729D01*
X377070Y98729D02*
X379358Y98729D01*
X382267Y97585D02*
X383411Y98729D01*
X385699Y98729D01*
X386843Y97585D01*
X386843Y96441D01*
X385699Y95297D01*
X384555Y95297D01*
X385699Y95297D02*
X386843Y94153D01*
X386843Y93009D01*
X385699Y91866D01*
X383411Y91866D01*
X382267Y93009D01*
D79*
X592881Y280484D02*
X592881Y289124D01*
X585761Y289124D02*
X585761Y280484D01*
D82*
X589321Y291154D03*
X589321Y278454D03*
D11*
X577336Y288089D02*
X570472Y288089D01*
X570472Y291521D01*
X571616Y292665D01*
X573904Y292665D01*
X575048Y291521D01*
X575048Y288089D01*
X575048Y290377D02*
X577336Y292665D01*
X576192Y295573D02*
X577336Y296717D01*
X577336Y299005D01*
X576192Y300149D01*
X571616Y300149D01*
X570472Y299005D01*
X570472Y296717D01*
X571616Y295573D01*
X572760Y295573D01*
X573904Y296717D01*
X573904Y300149D01*
D79*
X535972Y253067D02*
X527332Y253067D01*
X527332Y260187D02*
X535972Y260187D01*
D80*
X538002Y256627D03*
X525302Y256627D03*
D11*
X500822Y248702D02*
X500822Y241839D01*
X500822Y248702D02*
X504254Y248702D01*
X505398Y247558D01*
X505398Y245270D01*
X504254Y244126D01*
X500822Y244126D01*
X503110Y244126D02*
X505398Y241839D01*
X508306Y246414D02*
X510594Y248702D01*
X510594Y241839D01*
X508306Y241839D02*
X512882Y241839D01*
X515790Y242982D02*
X515790Y247558D01*
X516934Y248702D01*
X519222Y248702D01*
X520366Y247558D01*
X520366Y242982D01*
X519222Y241839D01*
X516934Y241839D01*
X515790Y242982D01*
X520366Y247558D01*
D79*
X537640Y149546D02*
X537640Y140906D01*
X544760Y140906D02*
X544760Y149546D01*
D82*
X541200Y138876D03*
X541200Y151576D03*
D11*
X538064Y162982D02*
X544928Y162982D01*
X538064Y162982D02*
X538064Y166413D01*
X539208Y167557D01*
X541496Y167557D01*
X542640Y166413D01*
X542640Y162982D01*
X542640Y165269D02*
X544928Y167557D01*
X540352Y170466D02*
X538064Y172754D01*
X544928Y172754D01*
X544928Y170466D02*
X544928Y175042D01*
X544928Y177950D02*
X544928Y182526D01*
X544928Y177950D02*
X540352Y182526D01*
X539208Y182526D01*
X538064Y181382D01*
X538064Y179094D01*
X539208Y177950D01*
D79*
X536480Y207474D02*
X527840Y207474D01*
X527840Y214594D02*
X536480Y214594D01*
D80*
X538510Y211034D03*
X525810Y211034D03*
D11*
X501330Y202555D02*
X501330Y195692D01*
X501330Y202555D02*
X504762Y202555D01*
X505906Y201411D01*
X505906Y199123D01*
X504762Y197979D01*
X501330Y197979D01*
X503618Y197979D02*
X505906Y195692D01*
X508814Y200267D02*
X511102Y202555D01*
X511102Y195692D01*
X508814Y195692D02*
X513390Y195692D01*
X516298Y201411D02*
X517442Y202555D01*
X519730Y202555D01*
X520874Y201411D01*
X520874Y200267D01*
X519730Y199123D01*
X518586Y199123D01*
X519730Y199123D02*
X520874Y197979D01*
X520874Y196835D01*
X519730Y195692D01*
X517442Y195692D01*
X516298Y196835D01*
D79*
X527967Y230144D02*
X536607Y230144D01*
X536607Y237264D02*
X527967Y237264D01*
D80*
X538637Y233704D03*
X525937Y233704D03*
D11*
X500457Y226002D02*
X500457Y219138D01*
X500457Y226002D02*
X503889Y226002D01*
X505033Y224858D01*
X505033Y222570D01*
X503889Y221426D01*
X500457Y221426D01*
X502745Y221426D02*
X505033Y219138D01*
X507941Y219138D02*
X512517Y219138D01*
X507941Y219138D02*
X512517Y223714D01*
X512517Y224858D01*
X511373Y226002D01*
X509085Y226002D01*
X507941Y224858D01*
X518857Y226002D02*
X518857Y219138D01*
X515425Y222570D02*
X518857Y226002D01*
X520001Y222570D02*
X515425Y222570D01*
D78*
X160762Y203248D02*
X160762Y187048D01*
X160762Y203248D02*
X189202Y203248D01*
X189202Y187048D01*
X160762Y187048D01*
X189482Y187148D02*
X189482Y203148D01*
X160482Y203148D02*
X160482Y187148D01*
X183482Y198648D02*
X183484Y198711D01*
X183490Y198773D01*
X183500Y198835D01*
X183513Y198897D01*
X183531Y198957D01*
X183552Y199016D01*
X183577Y199074D01*
X183606Y199130D01*
X183638Y199184D01*
X183673Y199236D01*
X183711Y199285D01*
X183753Y199333D01*
X183797Y199377D01*
X183845Y199419D01*
X183894Y199457D01*
X183946Y199492D01*
X184000Y199524D01*
X184056Y199553D01*
X184114Y199578D01*
X184173Y199599D01*
X184233Y199617D01*
X184295Y199630D01*
X184357Y199640D01*
X184419Y199646D01*
X184482Y199648D01*
X184545Y199646D01*
X184607Y199640D01*
X184669Y199630D01*
X184731Y199617D01*
X184791Y199599D01*
X184850Y199578D01*
X184908Y199553D01*
X184964Y199524D01*
X185018Y199492D01*
X185070Y199457D01*
X185119Y199419D01*
X185167Y199377D01*
X185211Y199333D01*
X185253Y199285D01*
X185291Y199236D01*
X185326Y199184D01*
X185358Y199130D01*
X185387Y199074D01*
X185412Y199016D01*
X185433Y198957D01*
X185451Y198897D01*
X185464Y198835D01*
X185474Y198773D01*
X185480Y198711D01*
X185482Y198648D01*
X185480Y198585D01*
X185474Y198523D01*
X185464Y198461D01*
X185451Y198399D01*
X185433Y198339D01*
X185412Y198280D01*
X185387Y198222D01*
X185358Y198166D01*
X185326Y198112D01*
X185291Y198060D01*
X185253Y198011D01*
X185211Y197963D01*
X185167Y197919D01*
X185119Y197877D01*
X185070Y197839D01*
X185018Y197804D01*
X184964Y197772D01*
X184908Y197743D01*
X184850Y197718D01*
X184791Y197697D01*
X184731Y197679D01*
X184669Y197666D01*
X184607Y197656D01*
X184545Y197650D01*
X184482Y197648D01*
X184419Y197650D01*
X184357Y197656D01*
X184295Y197666D01*
X184233Y197679D01*
X184173Y197697D01*
X184114Y197718D01*
X184056Y197743D01*
X184000Y197772D01*
X183946Y197804D01*
X183894Y197839D01*
X183845Y197877D01*
X183797Y197919D01*
X183753Y197963D01*
X183711Y198011D01*
X183673Y198060D01*
X183638Y198112D01*
X183606Y198166D01*
X183577Y198222D01*
X183552Y198280D01*
X183531Y198339D01*
X183513Y198399D01*
X183500Y198461D01*
X183490Y198523D01*
X183484Y198585D01*
X183482Y198648D01*
D84*
X184482Y206898D03*
X174982Y206898D03*
X165482Y206898D03*
X165482Y183398D03*
X174982Y183398D03*
X184482Y183398D03*
D11*
X155090Y184027D02*
X149370Y184027D01*
X155090Y184027D02*
X156234Y185171D01*
X156234Y187459D01*
X155090Y188603D01*
X149370Y188603D01*
X149370Y194943D02*
X156234Y194943D01*
X152802Y191511D02*
X149370Y194943D01*
X152802Y196087D02*
X152802Y191511D01*
D76*
X204438Y174726D02*
X204438Y160226D01*
X211438Y160226D02*
X211438Y174726D01*
D81*
X207938Y161226D03*
X207938Y173726D03*
D11*
X205198Y142352D02*
X204054Y141208D01*
X204054Y138920D01*
X205198Y137777D01*
X209774Y137777D01*
X210918Y138920D01*
X210918Y141208D01*
X209774Y142352D01*
X206342Y145261D02*
X204054Y147549D01*
X210918Y147549D01*
X210918Y145261D02*
X210918Y149837D01*
D79*
X193845Y152156D02*
X193845Y160796D01*
X186725Y160796D02*
X186725Y152156D01*
D82*
X190285Y162826D03*
X190285Y150126D03*
D11*
X192635Y120200D02*
X185771Y120200D01*
X185771Y123632D01*
X186915Y124776D01*
X189203Y124776D01*
X190347Y123632D01*
X190347Y120200D01*
X190347Y122488D02*
X192635Y124776D01*
X188059Y127684D02*
X185771Y129972D01*
X192635Y129972D01*
X192635Y127684D02*
X192635Y132260D01*
X186915Y137456D02*
X185771Y139744D01*
X186915Y137456D02*
X189203Y135168D01*
X191491Y135168D01*
X192635Y136312D01*
X192635Y138600D01*
X191491Y139744D01*
X190347Y139744D01*
X189203Y138600D01*
X189203Y135168D01*
D76*
X110854Y200534D02*
X110854Y215034D01*
X103854Y215034D02*
X103854Y200534D01*
D81*
X107354Y214034D03*
X107354Y201534D03*
D11*
X105512Y180027D02*
X104368Y178883D01*
X104368Y176595D01*
X105512Y175451D01*
X110088Y175451D01*
X111232Y176595D01*
X111232Y178883D01*
X110088Y180027D01*
X105512Y185223D02*
X104368Y187511D01*
X105512Y185223D02*
X107800Y182935D01*
X110088Y182935D01*
X111232Y184079D01*
X111232Y186367D01*
X110088Y187511D01*
X108944Y187511D01*
X107800Y186367D01*
X107800Y182935D01*
D76*
X128507Y200534D02*
X128507Y215034D01*
X121507Y215034D02*
X121507Y200534D01*
D81*
X125007Y214034D03*
X125007Y201534D03*
D11*
X122834Y179135D02*
X121690Y177991D01*
X121690Y175703D01*
X122834Y174559D01*
X127410Y174559D01*
X128554Y175703D01*
X128554Y177991D01*
X127410Y179135D01*
X127410Y182043D02*
X128554Y183187D01*
X128554Y185475D01*
X127410Y186619D01*
X122834Y186619D01*
X121690Y185475D01*
X121690Y183187D01*
X122834Y182043D01*
X123978Y182043D01*
X125122Y183187D01*
X125122Y186619D01*
D76*
X222360Y212980D02*
X222360Y227480D01*
X215360Y227480D02*
X215360Y212980D01*
D81*
X218860Y226480D03*
X218860Y213980D03*
D11*
X217687Y187096D02*
X216543Y185952D01*
X216543Y183665D01*
X217687Y182521D01*
X222263Y182521D01*
X223407Y183665D01*
X223407Y185952D01*
X222263Y187096D01*
X218831Y190005D02*
X216543Y192293D01*
X223407Y192293D01*
X223407Y190005D02*
X223407Y194581D01*
X222263Y197489D02*
X217687Y197489D01*
X216543Y198633D01*
X216543Y200921D01*
X217687Y202065D01*
X222263Y202065D01*
X223407Y200921D01*
X223407Y198633D01*
X222263Y197489D01*
X217687Y202065D01*
D76*
X238426Y212980D02*
X238426Y227480D01*
X231426Y227480D02*
X231426Y212980D01*
D81*
X234926Y226480D03*
X234926Y213980D03*
D11*
X231753Y173539D02*
X230609Y172395D01*
X230609Y170107D01*
X231753Y168963D01*
X236329Y168963D01*
X237473Y170107D01*
X237473Y172395D01*
X236329Y173539D01*
X232897Y176447D02*
X230609Y178735D01*
X237473Y178735D01*
X237473Y176447D02*
X237473Y181023D01*
X232897Y183931D02*
X230609Y186219D01*
X237473Y186219D01*
X237473Y183931D02*
X237473Y188507D01*
D76*
X254491Y212980D02*
X254491Y227480D01*
X247491Y227480D02*
X247491Y212980D01*
D81*
X250991Y226480D03*
X250991Y213980D03*
D11*
X248707Y186539D02*
X247563Y185395D01*
X247563Y183107D01*
X248707Y181963D01*
X253283Y181963D01*
X254427Y183107D01*
X254427Y185395D01*
X253283Y186539D01*
X249851Y189447D02*
X247563Y191735D01*
X254427Y191735D01*
X254427Y189447D02*
X254427Y194023D01*
X254427Y196931D02*
X254427Y201507D01*
X254427Y196931D02*
X249851Y201507D01*
X248707Y201507D01*
X247563Y200363D01*
X247563Y198075D01*
X248707Y196931D01*
D79*
X103788Y235792D02*
X103788Y244432D01*
X110908Y244432D02*
X110908Y235792D01*
D82*
X107348Y233762D03*
X107348Y246462D03*
D11*
X118212Y258979D02*
X125076Y258979D01*
X118212Y258979D02*
X118212Y262411D01*
X119356Y263555D01*
X121644Y263555D01*
X122788Y262411D01*
X122788Y258979D01*
X122788Y261267D02*
X125076Y263555D01*
X125076Y266463D02*
X125076Y271039D01*
X125076Y266463D02*
X120500Y271039D01*
X119356Y271039D01*
X118212Y269895D01*
X118212Y267607D01*
X119356Y266463D01*
X125076Y273947D02*
X125076Y278523D01*
X125076Y273947D02*
X120500Y278523D01*
X119356Y278523D01*
X118212Y277379D01*
X118212Y275091D01*
X119356Y273947D01*
D79*
X156817Y156097D02*
X156817Y147457D01*
X163937Y147457D02*
X163937Y156097D01*
D82*
X160377Y145427D03*
X160377Y158127D03*
D11*
X160108Y114529D02*
X153244Y114529D01*
X153244Y117961D01*
X154388Y119105D01*
X156676Y119105D01*
X157820Y117961D01*
X157820Y114529D01*
X157820Y116817D02*
X160108Y119105D01*
X160108Y122013D02*
X160108Y126589D01*
X160108Y122013D02*
X155532Y126589D01*
X154388Y126589D01*
X153244Y125445D01*
X153244Y123157D01*
X154388Y122013D01*
X154388Y129497D02*
X153244Y130641D01*
X153244Y132929D01*
X154388Y134073D01*
X155532Y134073D01*
X156676Y132929D01*
X157820Y134073D01*
X158964Y134073D01*
X160108Y132929D01*
X160108Y130641D01*
X158964Y129497D01*
X157820Y129497D01*
X156676Y130641D01*
X155532Y129497D01*
X154388Y129497D01*
X156676Y130641D02*
X156676Y132929D01*
D79*
X135608Y147457D02*
X135608Y156097D01*
X142728Y156097D02*
X142728Y147457D01*
D82*
X139168Y145427D03*
X139168Y158127D03*
D11*
X142294Y169400D02*
X135430Y169400D01*
X135430Y172832D01*
X136574Y173976D01*
X138862Y173976D01*
X140006Y172832D01*
X140006Y169400D01*
X140006Y171688D02*
X142294Y173976D01*
X142294Y176884D02*
X142294Y181460D01*
X142294Y176884D02*
X137718Y181460D01*
X136574Y181460D01*
X135430Y180316D01*
X135430Y178028D01*
X136574Y176884D01*
X141150Y184368D02*
X142294Y185512D01*
X142294Y187800D01*
X141150Y188944D01*
X136574Y188944D01*
X135430Y187800D01*
X135430Y185512D01*
X136574Y184368D01*
X137718Y184368D01*
X138862Y185512D01*
X138862Y188944D01*
D79*
X114367Y156097D02*
X114367Y147457D01*
X121487Y147457D02*
X121487Y156097D01*
D82*
X117927Y145427D03*
X117927Y158127D03*
D11*
X106543Y145644D02*
X99679Y145644D01*
X99679Y149076D01*
X100823Y150220D01*
X103111Y150220D01*
X104255Y149076D01*
X104255Y145644D01*
X104255Y147932D02*
X106543Y150220D01*
X100823Y153128D02*
X99679Y154272D01*
X99679Y156560D01*
X100823Y157704D01*
X101967Y157704D01*
X103111Y156560D01*
X103111Y155416D01*
X103111Y156560D02*
X104255Y157704D01*
X105399Y157704D01*
X106543Y156560D01*
X106543Y154272D01*
X105399Y153128D01*
X105399Y160612D02*
X100823Y160612D01*
X99679Y161756D01*
X99679Y164044D01*
X100823Y165188D01*
X105399Y165188D01*
X106543Y164044D01*
X106543Y161756D01*
X105399Y160612D01*
X100823Y165188D01*
X135661Y229344D02*
X135661Y282744D01*
X190521Y282744D01*
X190521Y229344D01*
X135661Y229344D01*
D78*
X135861Y229544D02*
X135861Y282544D01*
X190861Y282544D01*
X190861Y229544D01*
X135861Y229544D01*
D11*
X138361Y287442D02*
X138361Y294306D01*
X138361Y287442D02*
X142937Y287442D01*
X145845Y287442D02*
X150421Y287442D01*
X145845Y287442D02*
X150421Y292018D01*
X150421Y293162D01*
X149277Y294306D01*
X146989Y294306D01*
X145845Y293162D01*
X111422Y275345D02*
X104558Y275345D01*
X104558Y273057D02*
X104558Y277633D01*
X104558Y280541D02*
X111422Y280541D01*
X104558Y280541D02*
X104558Y283973D01*
X105702Y285117D01*
X107990Y285117D01*
X109134Y283973D01*
X109134Y280541D01*
X106846Y288025D02*
X104558Y290313D01*
X111422Y290313D01*
X111422Y288025D02*
X111422Y292601D01*
X244051Y249408D02*
X250915Y249408D01*
X244051Y247121D02*
X244051Y251696D01*
X244051Y254605D02*
X250915Y254605D01*
X244051Y254605D02*
X244051Y258037D01*
X245195Y259181D01*
X247483Y259181D01*
X248627Y258037D01*
X248627Y254605D01*
X250915Y262089D02*
X250915Y266665D01*
X250915Y262089D02*
X246339Y266665D01*
X245195Y266665D01*
X244051Y265521D01*
X244051Y263233D01*
X245195Y262089D01*
D78*
X176261Y45490D02*
X182755Y39449D01*
X176261Y45489D02*
X176153Y45592D01*
X176048Y45698D01*
X175946Y45807D01*
X175846Y45918D01*
X175749Y46031D01*
X175655Y46147D01*
X175564Y46266D01*
X175476Y46387D01*
X175392Y46509D01*
X175310Y46635D01*
X175232Y46762D01*
X175157Y46891D01*
X175085Y47022D01*
X175017Y47154D01*
X174952Y47289D01*
X174891Y47425D01*
X174833Y47563D01*
X174779Y47702D01*
X174728Y47842D01*
X174681Y47984D01*
X174637Y48127D01*
X174598Y48270D01*
X174562Y48415D01*
X174529Y48561D01*
X174501Y48708D01*
X174476Y48855D01*
X174455Y49003D01*
X174438Y49151D01*
X174424Y49300D01*
X174415Y49449D01*
X174409Y49598D01*
X174407Y49747D01*
X174407Y104682D01*
X174409Y104831D01*
X174415Y104980D01*
X174424Y105129D01*
X174438Y105278D01*
X174455Y105426D01*
X174476Y105574D01*
X174501Y105721D01*
X174529Y105868D01*
X174562Y106014D01*
X174598Y106159D01*
X174637Y106302D01*
X174681Y106445D01*
X174728Y106587D01*
X174779Y106727D01*
X174833Y106866D01*
X174891Y107004D01*
X174952Y107140D01*
X175017Y107275D01*
X175085Y107407D01*
X175157Y107538D01*
X175232Y107667D01*
X175310Y107794D01*
X175392Y107920D01*
X175476Y108042D01*
X175564Y108163D01*
X175655Y108282D01*
X175749Y108398D01*
X175846Y108511D01*
X175946Y108622D01*
X176048Y108731D01*
X176153Y108837D01*
X176261Y108940D01*
X182755Y114980D01*
X182755Y114979D02*
X182904Y115115D01*
X183057Y115247D01*
X183212Y115375D01*
X183371Y115499D01*
X183533Y115620D01*
X183697Y115737D01*
X183865Y115849D01*
X184035Y115958D01*
X184207Y116062D01*
X184382Y116162D01*
X184560Y116258D01*
X184739Y116350D01*
X184921Y116437D01*
X185105Y116519D01*
X185291Y116598D01*
X185479Y116672D01*
X185668Y116741D01*
X185859Y116805D01*
X186052Y116865D01*
X186246Y116921D01*
X186441Y116971D01*
X186637Y117017D01*
X186835Y117059D01*
X187033Y117095D01*
X187232Y117126D01*
X187432Y117153D01*
X187633Y117175D01*
X187834Y117192D01*
X188035Y117204D01*
X188236Y117212D01*
X188438Y117214D01*
D11*
X188438Y117215D02*
X188474Y117215D01*
D78*
X188654Y117213D01*
X188833Y117206D01*
X189012Y117195D01*
X189191Y117180D01*
X189370Y117161D01*
X189548Y117137D01*
X189725Y117109D01*
X189902Y117077D01*
X190078Y117040D01*
X190253Y116999D01*
X190427Y116954D01*
X190599Y116905D01*
X190771Y116851D01*
X190941Y116794D01*
X191110Y116732D01*
X191277Y116666D01*
X191442Y116597D01*
X191606Y116523D01*
X191768Y116445D01*
X191928Y116364D01*
X192086Y116278D01*
X192242Y116189D01*
X192396Y116096D01*
X192547Y115999D01*
X192696Y115899D01*
X192843Y115795D01*
X192987Y115688D01*
X193128Y115577D01*
X193267Y115463D01*
X193403Y115346D01*
X193536Y115225D01*
X193666Y115101D01*
X193793Y114974D01*
X193917Y114844D01*
X194038Y114711D01*
X194155Y114575D01*
X194269Y114436D01*
X194380Y114295D01*
X194487Y114151D01*
X194591Y114004D01*
X194691Y113855D01*
X194788Y113704D01*
X194881Y113550D01*
X194970Y113394D01*
X195056Y113236D01*
X195137Y113076D01*
X195215Y112914D01*
X195289Y112750D01*
X195358Y112585D01*
X195424Y112418D01*
X195486Y112249D01*
X195543Y112079D01*
X195597Y111907D01*
X195646Y111735D01*
X195691Y111561D01*
X195732Y111386D01*
X195769Y111210D01*
X195801Y111033D01*
X195829Y110856D01*
X195853Y110678D01*
X195872Y110499D01*
X195887Y110320D01*
X195898Y110141D01*
X195905Y109962D01*
X195907Y109782D01*
X195907Y44648D01*
X195905Y44468D01*
X195898Y44289D01*
X195887Y44110D01*
X195872Y43931D01*
X195853Y43752D01*
X195829Y43574D01*
X195801Y43397D01*
X195769Y43220D01*
X195732Y43044D01*
X195691Y42869D01*
X195646Y42695D01*
X195597Y42523D01*
X195543Y42351D01*
X195486Y42181D01*
X195424Y42012D01*
X195358Y41845D01*
X195289Y41680D01*
X195215Y41516D01*
X195137Y41354D01*
X195056Y41194D01*
X194970Y41036D01*
X194881Y40880D01*
X194788Y40726D01*
X194691Y40575D01*
X194591Y40426D01*
X194487Y40279D01*
X194380Y40135D01*
X194269Y39994D01*
X194155Y39855D01*
X194038Y39719D01*
X193917Y39586D01*
X193793Y39456D01*
X193666Y39329D01*
X193536Y39205D01*
X193403Y39084D01*
X193267Y38967D01*
X193128Y38853D01*
X192987Y38742D01*
X192843Y38635D01*
X192696Y38531D01*
X192547Y38431D01*
X192396Y38334D01*
X192242Y38241D01*
X192086Y38152D01*
X191928Y38066D01*
X191768Y37985D01*
X191606Y37907D01*
X191442Y37833D01*
X191277Y37764D01*
X191110Y37698D01*
X190941Y37636D01*
X190771Y37579D01*
X190599Y37525D01*
X190427Y37476D01*
X190253Y37431D01*
X190078Y37390D01*
X189902Y37353D01*
X189725Y37321D01*
X189548Y37293D01*
X189370Y37269D01*
X189191Y37250D01*
X189012Y37235D01*
X188833Y37224D01*
X188654Y37217D01*
X188474Y37215D01*
D11*
X188438Y37215D01*
D78*
X188236Y37217D01*
X188035Y37225D01*
X187834Y37237D01*
X187633Y37254D01*
X187432Y37276D01*
X187232Y37303D01*
X187033Y37334D01*
X186835Y37370D01*
X186637Y37412D01*
X186441Y37458D01*
X186246Y37508D01*
X186052Y37564D01*
X185859Y37624D01*
X185668Y37688D01*
X185479Y37757D01*
X185291Y37831D01*
X185105Y37910D01*
X184921Y37992D01*
X184739Y38079D01*
X184560Y38171D01*
X184382Y38267D01*
X184207Y38367D01*
X184035Y38471D01*
X183865Y38580D01*
X183697Y38692D01*
X183533Y38809D01*
X183371Y38930D01*
X183212Y39054D01*
X183057Y39182D01*
X182904Y39314D01*
X182755Y39450D01*
D11*
X169756Y87850D02*
X170900Y88994D01*
X170900Y90138D01*
X169756Y91281D01*
X164036Y91281D01*
X164036Y90138D02*
X164036Y92425D01*
X164036Y95334D02*
X164036Y99910D01*
X164036Y95334D02*
X167468Y95334D01*
X166324Y97622D01*
X166324Y98766D01*
X167468Y99910D01*
X169756Y99910D01*
X170900Y98766D01*
X170900Y96478D01*
X169756Y95334D01*
D79*
X344148Y171242D02*
X344148Y179882D01*
X351268Y179882D02*
X351268Y171242D01*
D82*
X347708Y169212D03*
X347708Y181912D03*
D11*
X349663Y193317D02*
X342799Y193317D01*
X342799Y196749D01*
X343943Y197893D01*
X346231Y197893D01*
X347375Y196749D01*
X347375Y193317D01*
X347375Y195605D02*
X349663Y197893D01*
X349663Y200801D02*
X349663Y205377D01*
X349663Y200801D02*
X345087Y205377D01*
X343943Y205377D01*
X342799Y204233D01*
X342799Y201945D01*
X343943Y200801D01*
X343943Y208285D02*
X348519Y208285D01*
X343943Y208285D02*
X342799Y209429D01*
X342799Y211717D01*
X343943Y212861D01*
X348519Y212861D01*
X349663Y211717D01*
X349663Y209429D01*
X348519Y208285D01*
X343943Y212861D01*
D79*
X302497Y186569D02*
X289289Y186569D01*
X302497Y186569D02*
X302497Y158121D01*
X289289Y158121D01*
X289289Y186569D01*
D85*
X285860Y172345D03*
X305926Y181743D03*
X305926Y162947D03*
D11*
X273153Y161850D02*
X273153Y157274D01*
X273153Y161850D02*
X274297Y162994D01*
X276585Y162994D01*
X277729Y161850D01*
X277729Y157274D01*
X276585Y156131D01*
X274297Y156131D01*
X273153Y157274D01*
X275441Y158418D02*
X277729Y156131D01*
X280637Y161850D02*
X281781Y162994D01*
X284069Y162994D01*
X285213Y161850D01*
X285213Y160706D01*
X284069Y159562D01*
X282925Y159562D01*
X284069Y159562D02*
X285213Y158418D01*
X285213Y157274D01*
X284069Y156131D01*
X281781Y156131D01*
X280637Y157274D01*
D79*
X330450Y171271D02*
X330450Y179911D01*
X323330Y179911D02*
X323330Y171271D01*
D82*
X326890Y181941D03*
X326890Y169241D03*
D11*
X329041Y194538D02*
X335905Y194538D01*
X329041Y194538D02*
X329041Y197969D01*
X330185Y199113D01*
X332473Y199113D01*
X333617Y197969D01*
X333617Y194538D01*
X333617Y196825D02*
X335905Y199113D01*
X335905Y202022D02*
X335905Y206598D01*
X335905Y202022D02*
X331329Y206598D01*
X330185Y206598D01*
X329041Y205454D01*
X329041Y203166D01*
X330185Y202022D01*
X331329Y209506D02*
X329041Y211794D01*
X335905Y211794D01*
X335905Y209506D02*
X335905Y214082D01*
X415345Y27598D02*
X415345Y20735D01*
X413058Y27598D02*
X417633Y27598D01*
X420542Y27598D02*
X420542Y20735D01*
X420542Y27598D02*
X423974Y27598D01*
X425118Y26454D01*
X425118Y24166D01*
X423974Y23022D01*
X420542Y23022D01*
X428026Y25310D02*
X430314Y27598D01*
X430314Y20735D01*
X428026Y20735D02*
X432602Y20735D01*
X435510Y21878D02*
X436654Y20735D01*
X438942Y20735D01*
X440086Y21878D01*
X440086Y26454D01*
X438942Y27598D01*
X436654Y27598D01*
X435510Y26454D01*
X435510Y25310D01*
X436654Y24166D01*
X440086Y24166D01*
X449845Y14206D02*
X449845Y7343D01*
X447558Y14206D02*
X452133Y14206D01*
X455042Y14206D02*
X455042Y7343D01*
X455042Y14206D02*
X458474Y14206D01*
X459618Y13062D01*
X459618Y10774D01*
X458474Y9630D01*
X455042Y9630D01*
X462526Y7343D02*
X467102Y7343D01*
X467102Y11918D02*
X462526Y7343D01*
X467102Y11918D02*
X467102Y13062D01*
X465958Y14206D01*
X463670Y14206D01*
X462526Y13062D01*
X470010Y13062D02*
X470010Y8486D01*
X470010Y13062D02*
X471154Y14206D01*
X473442Y14206D01*
X474586Y13062D01*
X474586Y8486D01*
X473442Y7343D01*
X471154Y7343D01*
X470010Y8486D01*
X474586Y13062D01*
D86*
X612060Y276360D02*
X630060Y276360D01*
X612060Y276360D02*
X612060Y292360D01*
X630060Y292360D01*
X630060Y276360D01*
D87*
X635760Y270710D02*
X605760Y270710D01*
X605760Y298010D01*
X635760Y298010D01*
X635760Y270710D01*
D86*
X604060Y271010D02*
X604122Y271012D01*
X604183Y271018D01*
X604244Y271027D01*
X604304Y271040D01*
X604363Y271057D01*
X604421Y271078D01*
X604478Y271102D01*
X604533Y271129D01*
X604586Y271160D01*
X604638Y271194D01*
X604687Y271231D01*
X604734Y271271D01*
X604778Y271314D01*
X604819Y271359D01*
X604858Y271407D01*
X604894Y271458D01*
X604926Y271510D01*
X604955Y271564D01*
X604981Y271620D01*
X605003Y271678D01*
X605022Y271736D01*
X605037Y271796D01*
X605048Y271857D01*
X605056Y271918D01*
X605060Y271979D01*
X605060Y272041D01*
X605056Y272102D01*
X605048Y272163D01*
X605037Y272224D01*
X605022Y272284D01*
X605003Y272342D01*
X604981Y272400D01*
X604955Y272456D01*
X604926Y272510D01*
X604894Y272562D01*
X604858Y272613D01*
X604819Y272661D01*
X604778Y272706D01*
X604734Y272749D01*
X604687Y272789D01*
X604638Y272826D01*
X604586Y272860D01*
X604533Y272891D01*
X604478Y272918D01*
X604421Y272942D01*
X604363Y272963D01*
X604304Y272980D01*
X604244Y272993D01*
X604183Y273002D01*
X604122Y273008D01*
X604060Y273010D01*
X603998Y273008D01*
X603937Y273002D01*
X603876Y272993D01*
X603816Y272980D01*
X603757Y272963D01*
X603699Y272942D01*
X603642Y272918D01*
X603587Y272891D01*
X603534Y272860D01*
X603482Y272826D01*
X603433Y272789D01*
X603386Y272749D01*
X603342Y272706D01*
X603301Y272661D01*
X603262Y272613D01*
X603226Y272562D01*
X603194Y272510D01*
X603165Y272456D01*
X603139Y272400D01*
X603117Y272342D01*
X603098Y272284D01*
X603083Y272224D01*
X603072Y272163D01*
X603064Y272102D01*
X603060Y272041D01*
X603060Y271979D01*
X603064Y271918D01*
X603072Y271857D01*
X603083Y271796D01*
X603098Y271736D01*
X603117Y271678D01*
X603139Y271620D01*
X603165Y271564D01*
X603194Y271510D01*
X603226Y271458D01*
X603262Y271407D01*
X603301Y271359D01*
X603342Y271314D01*
X603386Y271271D01*
X603433Y271231D01*
X603482Y271194D01*
X603534Y271160D01*
X603587Y271129D01*
X603642Y271102D01*
X603699Y271078D01*
X603757Y271057D01*
X603816Y271040D01*
X603876Y271027D01*
X603937Y271018D01*
X603998Y271012D01*
X604060Y271010D01*
D88*
X604813Y277375D03*
D11*
X605257Y302531D02*
X605257Y309395D01*
X605257Y302531D02*
X609833Y302531D01*
X612741Y309395D02*
X617317Y309395D01*
X612741Y309395D02*
X612741Y302531D01*
X617317Y302531D01*
X615029Y305963D02*
X612741Y305963D01*
X620225Y309395D02*
X620225Y302531D01*
X623657Y302531D01*
X624801Y303675D01*
X624801Y308251D01*
X623657Y309395D01*
X620225Y309395D01*
X627709Y307107D02*
X629997Y309395D01*
X629997Y302531D01*
X627709Y302531D02*
X632285Y302531D01*
X251560Y232700D02*
X251581Y234418D01*
X251644Y236135D01*
X251750Y237850D01*
X251897Y239561D01*
X252086Y241269D01*
X252318Y242971D01*
X252591Y244667D01*
X252905Y246356D01*
X253261Y248037D01*
X253658Y249709D01*
X254096Y251370D01*
X254574Y253020D01*
X255093Y254658D01*
X255652Y256282D01*
X256251Y257893D01*
X256888Y259488D01*
X257565Y261067D01*
X258281Y262629D01*
X259034Y264173D01*
X259826Y265698D01*
X260654Y267203D01*
X261519Y268687D01*
X262420Y270150D01*
X263357Y271590D01*
X264329Y273007D01*
X265335Y274399D01*
X266376Y275766D01*
X267449Y277108D01*
X268555Y278422D01*
X269693Y279709D01*
X270863Y280968D01*
X272063Y282197D01*
X273292Y283397D01*
X274551Y284567D01*
X275838Y285705D01*
X277152Y286811D01*
X278494Y287884D01*
X279861Y288925D01*
X281253Y289931D01*
X282670Y290903D01*
X284110Y291840D01*
X285573Y292741D01*
X287057Y293606D01*
X288562Y294434D01*
X290087Y295226D01*
X291631Y295979D01*
X293193Y296695D01*
X294772Y297372D01*
X296367Y298009D01*
X297978Y298608D01*
X299602Y299167D01*
X301240Y299686D01*
X302890Y300164D01*
X304551Y300602D01*
X306223Y300999D01*
X307904Y301355D01*
X309593Y301669D01*
X311289Y301942D01*
X312991Y302174D01*
X314699Y302363D01*
X316410Y302510D01*
X318125Y302616D01*
X319842Y302679D01*
X321560Y302700D01*
X323278Y302679D01*
X324995Y302616D01*
X326710Y302510D01*
X328421Y302363D01*
X330129Y302174D01*
X331831Y301942D01*
X333527Y301669D01*
X335216Y301355D01*
X336897Y300999D01*
X338569Y300602D01*
X340230Y300164D01*
X341880Y299686D01*
X343518Y299167D01*
X345142Y298608D01*
X346753Y298009D01*
X348348Y297372D01*
X349927Y296695D01*
X351489Y295979D01*
X353033Y295226D01*
X354558Y294434D01*
X356063Y293606D01*
X357547Y292741D01*
X359010Y291840D01*
X360450Y290903D01*
X361867Y289931D01*
X363259Y288925D01*
X364626Y287884D01*
X365968Y286811D01*
X367282Y285705D01*
X368569Y284567D01*
X369828Y283397D01*
X371057Y282197D01*
X372257Y280968D01*
X373427Y279709D01*
X374565Y278422D01*
X375671Y277108D01*
X376744Y275766D01*
X377785Y274399D01*
X378791Y273007D01*
X379763Y271590D01*
X380700Y270150D01*
X381601Y268687D01*
X382466Y267203D01*
X383294Y265698D01*
X384086Y264173D01*
X384839Y262629D01*
X385555Y261067D01*
X386232Y259488D01*
X386869Y257893D01*
X387468Y256282D01*
X388027Y254658D01*
X388546Y253020D01*
X389024Y251370D01*
X389462Y249709D01*
X389859Y248037D01*
X390215Y246356D01*
X390529Y244667D01*
X390802Y242971D01*
X391034Y241269D01*
X391223Y239561D01*
X391370Y237850D01*
X391476Y236135D01*
X391539Y234418D01*
X391560Y232700D01*
X391539Y230982D01*
X391476Y229265D01*
X391370Y227550D01*
X391223Y225839D01*
X391034Y224131D01*
X390802Y222429D01*
X390529Y220733D01*
X390215Y219044D01*
X389859Y217363D01*
X389462Y215691D01*
X389024Y214030D01*
X388546Y212380D01*
X388027Y210742D01*
X387468Y209118D01*
X386869Y207507D01*
X386232Y205912D01*
X385555Y204333D01*
X384839Y202771D01*
X384086Y201227D01*
X383294Y199702D01*
X382466Y198197D01*
X381601Y196713D01*
X380700Y195250D01*
X379763Y193810D01*
X378791Y192393D01*
X377785Y191001D01*
X376744Y189634D01*
X375671Y188292D01*
X374565Y186978D01*
X373427Y185691D01*
X372257Y184432D01*
X371057Y183203D01*
X369828Y182003D01*
X368569Y180833D01*
X367282Y179695D01*
X365968Y178589D01*
X364626Y177516D01*
X363259Y176475D01*
X361867Y175469D01*
X360450Y174497D01*
X359010Y173560D01*
X357547Y172659D01*
X356063Y171794D01*
X354558Y170966D01*
X353033Y170174D01*
X351489Y169421D01*
X349927Y168705D01*
X348348Y168028D01*
X346753Y167391D01*
X345142Y166792D01*
X343518Y166233D01*
X341880Y165714D01*
X340230Y165236D01*
X338569Y164798D01*
X336897Y164401D01*
X335216Y164045D01*
X333527Y163731D01*
X331831Y163458D01*
X330129Y163226D01*
X328421Y163037D01*
X326710Y162890D01*
X324995Y162784D01*
X323278Y162721D01*
X321560Y162700D01*
X319842Y162721D01*
X318125Y162784D01*
X316410Y162890D01*
X314699Y163037D01*
X312991Y163226D01*
X311289Y163458D01*
X309593Y163731D01*
X307904Y164045D01*
X306223Y164401D01*
X304551Y164798D01*
X302890Y165236D01*
X301240Y165714D01*
X299602Y166233D01*
X297978Y166792D01*
X296367Y167391D01*
X294772Y168028D01*
X293193Y168705D01*
X291631Y169421D01*
X290087Y170174D01*
X288562Y170966D01*
X287057Y171794D01*
X285573Y172659D01*
X284110Y173560D01*
X282670Y174497D01*
X281253Y175469D01*
X279861Y176475D01*
X278494Y177516D01*
X277152Y178589D01*
X275838Y179695D01*
X274551Y180833D01*
X273292Y182003D01*
X272063Y183203D01*
X270863Y184432D01*
X269693Y185691D01*
X268555Y186978D01*
X267449Y188292D01*
X266376Y189634D01*
X265335Y191001D01*
X264329Y192393D01*
X263357Y193810D01*
X262420Y195250D01*
X261519Y196713D01*
X260654Y198197D01*
X259826Y199702D01*
X259034Y201227D01*
X258281Y202771D01*
X257565Y204333D01*
X256888Y205912D01*
X256251Y207507D01*
X255652Y209118D01*
X255093Y210742D01*
X254574Y212380D01*
X254096Y214030D01*
X253658Y215691D01*
X253261Y217363D01*
X252905Y219044D01*
X252591Y220733D01*
X252318Y222429D01*
X252086Y224131D01*
X251897Y225839D01*
X251750Y227550D01*
X251644Y229265D01*
X251581Y230982D01*
X251560Y232700D01*
X386560Y224700D02*
X391560Y224700D01*
X386560Y224700D02*
X386560Y244700D01*
X391560Y244700D01*
X257560Y219700D02*
X252560Y219700D01*
X257560Y219700D02*
X257560Y242700D01*
X251560Y242700D01*
X317089Y199335D02*
X323925Y199335D01*
X319368Y201614D02*
X317089Y199335D01*
X319368Y201614D02*
X317089Y203892D01*
X323925Y203892D01*
X319368Y206793D02*
X319368Y207933D01*
X323925Y207933D01*
X323925Y209072D02*
X323925Y206793D01*
X317089Y207933D02*
X315950Y207933D01*
X319368Y212905D02*
X319368Y216323D01*
X319368Y212905D02*
X320507Y211766D01*
X322786Y211766D01*
X323925Y212905D01*
X323925Y216323D01*
X326204Y226682D02*
X319368Y226682D01*
X319368Y230100D01*
X320507Y231239D01*
X322786Y231239D01*
X323925Y230100D01*
X323925Y226682D01*
X323925Y235280D02*
X323925Y237559D01*
X322786Y238698D01*
X320507Y238698D01*
X319368Y237559D01*
X319368Y235280D01*
X320507Y234141D01*
X322786Y234141D01*
X323925Y235280D01*
X323925Y241599D02*
X319368Y241599D01*
X321646Y241599D02*
X319368Y243878D01*
X319368Y245017D01*
X318228Y248954D02*
X322786Y248954D01*
X323925Y250093D01*
X319368Y250093D02*
X319368Y247814D01*
X317089Y262523D02*
X323925Y262523D01*
X317089Y260245D02*
X317089Y264802D01*
X317089Y268842D02*
X317089Y271121D01*
X317089Y268842D02*
X318228Y267703D01*
X322786Y267703D01*
X323925Y268842D01*
X323925Y271121D01*
X322786Y272260D01*
X318228Y272260D01*
X317089Y271121D01*
X317089Y275161D02*
X323925Y275161D01*
X317089Y275161D02*
X317089Y278579D01*
X318228Y279719D01*
X320507Y279719D01*
X321646Y278579D01*
X321646Y275161D01*
X302345Y224851D02*
X296625Y224851D01*
X302345Y224851D02*
X303489Y225995D01*
X303489Y228283D01*
X302345Y229427D01*
X296625Y229427D01*
X298913Y232335D02*
X296625Y234623D01*
X303489Y234623D01*
X303489Y232335D02*
X303489Y236911D01*
D78*
X90200Y281549D02*
X90200Y129149D01*
X24457Y129149D02*
X24457Y281549D01*
X56000Y152949D02*
X65130Y143819D01*
X69255Y129149D02*
X74179Y129149D01*
X82970Y129149D02*
X82970Y127862D01*
X78830Y127862D02*
X78830Y129149D01*
X80979Y129149D01*
X82970Y129149D01*
X77330Y126079D02*
X77330Y123449D01*
X84470Y123449D02*
X84470Y126079D01*
X78830Y129149D02*
X74179Y129149D01*
X82970Y127862D02*
X84470Y126079D01*
X84470Y123449D02*
X77330Y123449D01*
X29287Y129149D02*
X24457Y129149D01*
X29287Y129149D02*
X69255Y129149D01*
X77330Y126079D02*
X78830Y127862D01*
X74179Y129149D02*
X74179Y281549D01*
X54400Y154549D02*
X56000Y152949D01*
X50890Y148159D02*
X44500Y154549D01*
X50890Y148159D02*
X60180Y138869D01*
X60180Y189669D02*
X50890Y198959D01*
X69255Y281549D02*
X74179Y281549D01*
X56000Y203749D02*
X65130Y194619D01*
X60180Y240469D02*
X50890Y249759D01*
X56000Y254549D02*
X65130Y245419D01*
X44500Y205349D02*
X50890Y198959D01*
X56000Y203749D02*
X54400Y205349D01*
X48100Y211649D02*
X38720Y221029D01*
X48100Y262449D02*
X38720Y271829D01*
X33770Y216079D02*
X43310Y206539D01*
X43310Y257339D02*
X33770Y266879D01*
X43310Y257339D02*
X44500Y256149D01*
X50890Y249759D01*
X48100Y211649D02*
X54400Y205349D01*
X44500Y205349D02*
X43310Y206539D01*
X54400Y256149D02*
X48100Y262449D01*
X54400Y256149D02*
X56000Y254549D01*
X48100Y160849D02*
X54400Y154549D01*
X44500Y154549D02*
X43310Y155739D01*
X33770Y165279D01*
X38720Y170229D02*
X48100Y160849D01*
X80979Y129149D02*
X80979Y281549D01*
X74179Y281549D01*
X69255Y281549D02*
X29287Y281549D01*
X24457Y281549D01*
X9200Y281549D01*
X82970Y129149D02*
X87200Y129149D01*
X87200Y281549D02*
X80979Y281549D01*
X9200Y281549D02*
X9200Y129149D01*
X24457Y129149D01*
X87200Y129149D02*
X87200Y281549D01*
X87200Y129149D02*
X90200Y129149D01*
X90200Y281549D02*
X87200Y281549D01*
X56000Y152949D02*
X55959Y152797D01*
X55915Y152646D01*
X55867Y152496D01*
X55816Y152347D01*
X55761Y152200D01*
X55702Y152054D01*
X55640Y151909D01*
X55574Y151766D01*
X55505Y151625D01*
X55433Y151485D01*
X55357Y151347D01*
X55278Y151211D01*
X55195Y151077D01*
X55109Y150945D01*
X55021Y150815D01*
X54929Y150688D01*
X54834Y150562D01*
X54736Y150439D01*
X54635Y150318D01*
X54531Y150200D01*
X54424Y150084D01*
X54315Y149971D01*
X54202Y149861D01*
X54088Y149753D01*
X53970Y149648D01*
X53850Y149546D01*
X53728Y149447D01*
X53603Y149351D01*
X53476Y149258D01*
X53347Y149169D01*
X53216Y149082D01*
X53082Y148998D01*
X52947Y148918D01*
X52810Y148841D01*
X52671Y148768D01*
X52530Y148697D01*
X52387Y148631D01*
X52243Y148567D01*
X52098Y148507D01*
X51951Y148451D01*
X51802Y148398D01*
X51653Y148349D01*
X51502Y148304D01*
X51350Y148262D01*
X51198Y148224D01*
X51044Y148190D01*
X50890Y148159D01*
X50890Y198959D02*
X51044Y198990D01*
X51198Y199024D01*
X51350Y199062D01*
X51502Y199104D01*
X51653Y199149D01*
X51802Y199198D01*
X51951Y199251D01*
X52098Y199307D01*
X52243Y199367D01*
X52387Y199431D01*
X52530Y199497D01*
X52671Y199568D01*
X52810Y199641D01*
X52947Y199718D01*
X53082Y199798D01*
X53216Y199882D01*
X53347Y199969D01*
X53476Y200058D01*
X53603Y200151D01*
X53728Y200247D01*
X53850Y200346D01*
X53970Y200448D01*
X54088Y200553D01*
X54202Y200661D01*
X54315Y200771D01*
X54424Y200884D01*
X54531Y201000D01*
X54635Y201118D01*
X54736Y201239D01*
X54834Y201362D01*
X54929Y201488D01*
X55021Y201615D01*
X55109Y201745D01*
X55195Y201877D01*
X55278Y202011D01*
X55357Y202147D01*
X55433Y202285D01*
X55505Y202425D01*
X55574Y202566D01*
X55640Y202709D01*
X55702Y202854D01*
X55761Y203000D01*
X55816Y203147D01*
X55867Y203296D01*
X55915Y203446D01*
X55959Y203597D01*
X56000Y203749D01*
X43310Y257339D02*
X43341Y257493D01*
X43375Y257647D01*
X43413Y257799D01*
X43455Y257951D01*
X43500Y258102D01*
X43549Y258251D01*
X43602Y258400D01*
X43658Y258547D01*
X43718Y258692D01*
X43782Y258836D01*
X43848Y258979D01*
X43919Y259120D01*
X43992Y259259D01*
X44069Y259396D01*
X44149Y259531D01*
X44233Y259665D01*
X44320Y259796D01*
X44409Y259925D01*
X44502Y260052D01*
X44598Y260177D01*
X44697Y260299D01*
X44799Y260419D01*
X44904Y260537D01*
X45012Y260651D01*
X45122Y260764D01*
X45235Y260873D01*
X45351Y260980D01*
X45469Y261084D01*
X45590Y261185D01*
X45713Y261283D01*
X45839Y261378D01*
X45966Y261470D01*
X46096Y261558D01*
X46228Y261644D01*
X46362Y261727D01*
X46498Y261806D01*
X46636Y261882D01*
X46776Y261954D01*
X46917Y262023D01*
X47060Y262089D01*
X47205Y262151D01*
X47351Y262210D01*
X47498Y262265D01*
X47647Y262316D01*
X47797Y262364D01*
X47948Y262408D01*
X48100Y262449D01*
X48100Y211649D02*
X47948Y211608D01*
X47797Y211564D01*
X47647Y211516D01*
X47498Y211465D01*
X47351Y211410D01*
X47205Y211351D01*
X47060Y211289D01*
X46917Y211223D01*
X46776Y211154D01*
X46636Y211082D01*
X46498Y211006D01*
X46362Y210927D01*
X46228Y210844D01*
X46096Y210758D01*
X45966Y210670D01*
X45839Y210578D01*
X45713Y210483D01*
X45590Y210385D01*
X45469Y210284D01*
X45351Y210180D01*
X45235Y210073D01*
X45122Y209964D01*
X45012Y209851D01*
X44904Y209737D01*
X44799Y209619D01*
X44697Y209499D01*
X44598Y209377D01*
X44502Y209252D01*
X44409Y209125D01*
X44320Y208996D01*
X44233Y208865D01*
X44149Y208731D01*
X44069Y208596D01*
X43992Y208459D01*
X43919Y208320D01*
X43848Y208179D01*
X43782Y208036D01*
X43718Y207892D01*
X43658Y207747D01*
X43602Y207600D01*
X43549Y207451D01*
X43500Y207302D01*
X43455Y207151D01*
X43413Y206999D01*
X43375Y206847D01*
X43341Y206693D01*
X43310Y206539D01*
X50890Y249759D02*
X51044Y249790D01*
X51198Y249824D01*
X51350Y249862D01*
X51502Y249904D01*
X51653Y249949D01*
X51802Y249998D01*
X51951Y250051D01*
X52098Y250107D01*
X52243Y250167D01*
X52387Y250231D01*
X52530Y250297D01*
X52671Y250368D01*
X52810Y250441D01*
X52947Y250518D01*
X53082Y250598D01*
X53216Y250682D01*
X53347Y250769D01*
X53476Y250858D01*
X53603Y250951D01*
X53728Y251047D01*
X53850Y251146D01*
X53970Y251248D01*
X54088Y251353D01*
X54202Y251461D01*
X54315Y251571D01*
X54424Y251684D01*
X54531Y251800D01*
X54635Y251918D01*
X54736Y252039D01*
X54834Y252162D01*
X54929Y252288D01*
X55021Y252415D01*
X55109Y252545D01*
X55195Y252677D01*
X55278Y252811D01*
X55357Y252947D01*
X55433Y253085D01*
X55505Y253225D01*
X55574Y253366D01*
X55640Y253509D01*
X55702Y253654D01*
X55761Y253800D01*
X55816Y253947D01*
X55867Y254096D01*
X55915Y254246D01*
X55959Y254397D01*
X56000Y254549D01*
X48100Y160849D02*
X47948Y160808D01*
X47797Y160764D01*
X47647Y160716D01*
X47498Y160665D01*
X47351Y160610D01*
X47205Y160551D01*
X47060Y160489D01*
X46917Y160423D01*
X46776Y160354D01*
X46636Y160282D01*
X46498Y160206D01*
X46362Y160127D01*
X46228Y160044D01*
X46096Y159958D01*
X45966Y159870D01*
X45839Y159778D01*
X45713Y159683D01*
X45590Y159585D01*
X45469Y159484D01*
X45351Y159380D01*
X45235Y159273D01*
X45122Y159164D01*
X45012Y159051D01*
X44904Y158937D01*
X44799Y158819D01*
X44697Y158699D01*
X44598Y158577D01*
X44502Y158452D01*
X44409Y158325D01*
X44320Y158196D01*
X44233Y158065D01*
X44149Y157931D01*
X44069Y157796D01*
X43992Y157659D01*
X43919Y157520D01*
X43848Y157379D01*
X43782Y157236D01*
X43718Y157092D01*
X43658Y156947D01*
X43602Y156800D01*
X43549Y156651D01*
X43500Y156502D01*
X43455Y156351D01*
X43413Y156199D01*
X43375Y156047D01*
X43341Y155893D01*
X43310Y155739D01*
X30300Y154549D02*
X30306Y155019D01*
X30323Y155489D01*
X30352Y155958D01*
X30392Y156426D01*
X30444Y156893D01*
X30507Y157359D01*
X30582Y157823D01*
X30668Y158285D01*
X30765Y158745D01*
X30874Y159202D01*
X30994Y159657D01*
X31125Y160108D01*
X31267Y160556D01*
X31419Y161000D01*
X31583Y161441D01*
X31758Y161877D01*
X31943Y162309D01*
X32139Y162737D01*
X32345Y163159D01*
X32561Y163576D01*
X32788Y163988D01*
X33024Y164394D01*
X33271Y164794D01*
X33527Y165188D01*
X33793Y165576D01*
X34069Y165957D01*
X34353Y166331D01*
X34647Y166698D01*
X34949Y167057D01*
X35261Y167409D01*
X35581Y167754D01*
X35909Y168090D01*
X36245Y168418D01*
X36590Y168738D01*
X36942Y169050D01*
X37301Y169352D01*
X37668Y169646D01*
X38042Y169930D01*
X38423Y170206D01*
X38811Y170472D01*
X39205Y170728D01*
X39605Y170975D01*
X40011Y171211D01*
X40423Y171438D01*
X40840Y171654D01*
X41262Y171860D01*
X41690Y172056D01*
X42122Y172241D01*
X42558Y172416D01*
X42999Y172580D01*
X43443Y172732D01*
X43891Y172874D01*
X44342Y173005D01*
X44797Y173125D01*
X45254Y173234D01*
X45714Y173331D01*
X46176Y173417D01*
X46640Y173492D01*
X47106Y173555D01*
X47573Y173607D01*
X48041Y173647D01*
X48510Y173676D01*
X48980Y173693D01*
X49450Y173699D01*
X49920Y173693D01*
X50390Y173676D01*
X50859Y173647D01*
X51327Y173607D01*
X51794Y173555D01*
X52260Y173492D01*
X52724Y173417D01*
X53186Y173331D01*
X53646Y173234D01*
X54103Y173125D01*
X54558Y173005D01*
X55009Y172874D01*
X55457Y172732D01*
X55901Y172580D01*
X56342Y172416D01*
X56778Y172241D01*
X57210Y172056D01*
X57638Y171860D01*
X58060Y171654D01*
X58477Y171438D01*
X58889Y171211D01*
X59295Y170975D01*
X59695Y170728D01*
X60089Y170472D01*
X60477Y170206D01*
X60858Y169930D01*
X61232Y169646D01*
X61599Y169352D01*
X61958Y169050D01*
X62310Y168738D01*
X62655Y168418D01*
X62991Y168090D01*
X63319Y167754D01*
X63639Y167409D01*
X63951Y167057D01*
X64253Y166698D01*
X64547Y166331D01*
X64831Y165957D01*
X65107Y165576D01*
X65373Y165188D01*
X65629Y164794D01*
X65876Y164394D01*
X66112Y163988D01*
X66339Y163576D01*
X66555Y163159D01*
X66761Y162737D01*
X66957Y162309D01*
X67142Y161877D01*
X67317Y161441D01*
X67481Y161000D01*
X67633Y160556D01*
X67775Y160108D01*
X67906Y159657D01*
X68026Y159202D01*
X68135Y158745D01*
X68232Y158285D01*
X68318Y157823D01*
X68393Y157359D01*
X68456Y156893D01*
X68508Y156426D01*
X68548Y155958D01*
X68577Y155489D01*
X68594Y155019D01*
X68600Y154549D01*
X68594Y154079D01*
X68577Y153609D01*
X68548Y153140D01*
X68508Y152672D01*
X68456Y152205D01*
X68393Y151739D01*
X68318Y151275D01*
X68232Y150813D01*
X68135Y150353D01*
X68026Y149896D01*
X67906Y149441D01*
X67775Y148990D01*
X67633Y148542D01*
X67481Y148098D01*
X67317Y147657D01*
X67142Y147221D01*
X66957Y146789D01*
X66761Y146361D01*
X66555Y145939D01*
X66339Y145522D01*
X66112Y145110D01*
X65876Y144704D01*
X65629Y144304D01*
X65373Y143910D01*
X65107Y143522D01*
X64831Y143141D01*
X64547Y142767D01*
X64253Y142400D01*
X63951Y142041D01*
X63639Y141689D01*
X63319Y141344D01*
X62991Y141008D01*
X62655Y140680D01*
X62310Y140360D01*
X61958Y140048D01*
X61599Y139746D01*
X61232Y139452D01*
X60858Y139168D01*
X60477Y138892D01*
X60089Y138626D01*
X59695Y138370D01*
X59295Y138123D01*
X58889Y137887D01*
X58477Y137660D01*
X58060Y137444D01*
X57638Y137238D01*
X57210Y137042D01*
X56778Y136857D01*
X56342Y136682D01*
X55901Y136518D01*
X55457Y136366D01*
X55009Y136224D01*
X54558Y136093D01*
X54103Y135973D01*
X53646Y135864D01*
X53186Y135767D01*
X52724Y135681D01*
X52260Y135606D01*
X51794Y135543D01*
X51327Y135491D01*
X50859Y135451D01*
X50390Y135422D01*
X49920Y135405D01*
X49450Y135399D01*
X48980Y135405D01*
X48510Y135422D01*
X48041Y135451D01*
X47573Y135491D01*
X47106Y135543D01*
X46640Y135606D01*
X46176Y135681D01*
X45714Y135767D01*
X45254Y135864D01*
X44797Y135973D01*
X44342Y136093D01*
X43891Y136224D01*
X43443Y136366D01*
X42999Y136518D01*
X42558Y136682D01*
X42122Y136857D01*
X41690Y137042D01*
X41262Y137238D01*
X40840Y137444D01*
X40423Y137660D01*
X40011Y137887D01*
X39605Y138123D01*
X39205Y138370D01*
X38811Y138626D01*
X38423Y138892D01*
X38042Y139168D01*
X37668Y139452D01*
X37301Y139746D01*
X36942Y140048D01*
X36590Y140360D01*
X36245Y140680D01*
X35909Y141008D01*
X35581Y141344D01*
X35261Y141689D01*
X34949Y142041D01*
X34647Y142400D01*
X34353Y142767D01*
X34069Y143141D01*
X33793Y143522D01*
X33527Y143910D01*
X33271Y144304D01*
X33024Y144704D01*
X32788Y145110D01*
X32561Y145522D01*
X32345Y145939D01*
X32139Y146361D01*
X31943Y146789D01*
X31758Y147221D01*
X31583Y147657D01*
X31419Y148098D01*
X31267Y148542D01*
X31125Y148990D01*
X30994Y149441D01*
X30874Y149896D01*
X30765Y150353D01*
X30668Y150813D01*
X30582Y151275D01*
X30507Y151739D01*
X30444Y152205D01*
X30392Y152672D01*
X30352Y153140D01*
X30323Y153609D01*
X30306Y154079D01*
X30300Y154549D01*
X30300Y205349D02*
X30306Y205819D01*
X30323Y206289D01*
X30352Y206758D01*
X30392Y207226D01*
X30444Y207693D01*
X30507Y208159D01*
X30582Y208623D01*
X30668Y209085D01*
X30765Y209545D01*
X30874Y210002D01*
X30994Y210457D01*
X31125Y210908D01*
X31267Y211356D01*
X31419Y211800D01*
X31583Y212241D01*
X31758Y212677D01*
X31943Y213109D01*
X32139Y213537D01*
X32345Y213959D01*
X32561Y214376D01*
X32788Y214788D01*
X33024Y215194D01*
X33271Y215594D01*
X33527Y215988D01*
X33793Y216376D01*
X34069Y216757D01*
X34353Y217131D01*
X34647Y217498D01*
X34949Y217857D01*
X35261Y218209D01*
X35581Y218554D01*
X35909Y218890D01*
X36245Y219218D01*
X36590Y219538D01*
X36942Y219850D01*
X37301Y220152D01*
X37668Y220446D01*
X38042Y220730D01*
X38423Y221006D01*
X38811Y221272D01*
X39205Y221528D01*
X39605Y221775D01*
X40011Y222011D01*
X40423Y222238D01*
X40840Y222454D01*
X41262Y222660D01*
X41690Y222856D01*
X42122Y223041D01*
X42558Y223216D01*
X42999Y223380D01*
X43443Y223532D01*
X43891Y223674D01*
X44342Y223805D01*
X44797Y223925D01*
X45254Y224034D01*
X45714Y224131D01*
X46176Y224217D01*
X46640Y224292D01*
X47106Y224355D01*
X47573Y224407D01*
X48041Y224447D01*
X48510Y224476D01*
X48980Y224493D01*
X49450Y224499D01*
X49920Y224493D01*
X50390Y224476D01*
X50859Y224447D01*
X51327Y224407D01*
X51794Y224355D01*
X52260Y224292D01*
X52724Y224217D01*
X53186Y224131D01*
X53646Y224034D01*
X54103Y223925D01*
X54558Y223805D01*
X55009Y223674D01*
X55457Y223532D01*
X55901Y223380D01*
X56342Y223216D01*
X56778Y223041D01*
X57210Y222856D01*
X57638Y222660D01*
X58060Y222454D01*
X58477Y222238D01*
X58889Y222011D01*
X59295Y221775D01*
X59695Y221528D01*
X60089Y221272D01*
X60477Y221006D01*
X60858Y220730D01*
X61232Y220446D01*
X61599Y220152D01*
X61958Y219850D01*
X62310Y219538D01*
X62655Y219218D01*
X62991Y218890D01*
X63319Y218554D01*
X63639Y218209D01*
X63951Y217857D01*
X64253Y217498D01*
X64547Y217131D01*
X64831Y216757D01*
X65107Y216376D01*
X65373Y215988D01*
X65629Y215594D01*
X65876Y215194D01*
X66112Y214788D01*
X66339Y214376D01*
X66555Y213959D01*
X66761Y213537D01*
X66957Y213109D01*
X67142Y212677D01*
X67317Y212241D01*
X67481Y211800D01*
X67633Y211356D01*
X67775Y210908D01*
X67906Y210457D01*
X68026Y210002D01*
X68135Y209545D01*
X68232Y209085D01*
X68318Y208623D01*
X68393Y208159D01*
X68456Y207693D01*
X68508Y207226D01*
X68548Y206758D01*
X68577Y206289D01*
X68594Y205819D01*
X68600Y205349D01*
X68594Y204879D01*
X68577Y204409D01*
X68548Y203940D01*
X68508Y203472D01*
X68456Y203005D01*
X68393Y202539D01*
X68318Y202075D01*
X68232Y201613D01*
X68135Y201153D01*
X68026Y200696D01*
X67906Y200241D01*
X67775Y199790D01*
X67633Y199342D01*
X67481Y198898D01*
X67317Y198457D01*
X67142Y198021D01*
X66957Y197589D01*
X66761Y197161D01*
X66555Y196739D01*
X66339Y196322D01*
X66112Y195910D01*
X65876Y195504D01*
X65629Y195104D01*
X65373Y194710D01*
X65107Y194322D01*
X64831Y193941D01*
X64547Y193567D01*
X64253Y193200D01*
X63951Y192841D01*
X63639Y192489D01*
X63319Y192144D01*
X62991Y191808D01*
X62655Y191480D01*
X62310Y191160D01*
X61958Y190848D01*
X61599Y190546D01*
X61232Y190252D01*
X60858Y189968D01*
X60477Y189692D01*
X60089Y189426D01*
X59695Y189170D01*
X59295Y188923D01*
X58889Y188687D01*
X58477Y188460D01*
X58060Y188244D01*
X57638Y188038D01*
X57210Y187842D01*
X56778Y187657D01*
X56342Y187482D01*
X55901Y187318D01*
X55457Y187166D01*
X55009Y187024D01*
X54558Y186893D01*
X54103Y186773D01*
X53646Y186664D01*
X53186Y186567D01*
X52724Y186481D01*
X52260Y186406D01*
X51794Y186343D01*
X51327Y186291D01*
X50859Y186251D01*
X50390Y186222D01*
X49920Y186205D01*
X49450Y186199D01*
X48980Y186205D01*
X48510Y186222D01*
X48041Y186251D01*
X47573Y186291D01*
X47106Y186343D01*
X46640Y186406D01*
X46176Y186481D01*
X45714Y186567D01*
X45254Y186664D01*
X44797Y186773D01*
X44342Y186893D01*
X43891Y187024D01*
X43443Y187166D01*
X42999Y187318D01*
X42558Y187482D01*
X42122Y187657D01*
X41690Y187842D01*
X41262Y188038D01*
X40840Y188244D01*
X40423Y188460D01*
X40011Y188687D01*
X39605Y188923D01*
X39205Y189170D01*
X38811Y189426D01*
X38423Y189692D01*
X38042Y189968D01*
X37668Y190252D01*
X37301Y190546D01*
X36942Y190848D01*
X36590Y191160D01*
X36245Y191480D01*
X35909Y191808D01*
X35581Y192144D01*
X35261Y192489D01*
X34949Y192841D01*
X34647Y193200D01*
X34353Y193567D01*
X34069Y193941D01*
X33793Y194322D01*
X33527Y194710D01*
X33271Y195104D01*
X33024Y195504D01*
X32788Y195910D01*
X32561Y196322D01*
X32345Y196739D01*
X32139Y197161D01*
X31943Y197589D01*
X31758Y198021D01*
X31583Y198457D01*
X31419Y198898D01*
X31267Y199342D01*
X31125Y199790D01*
X30994Y200241D01*
X30874Y200696D01*
X30765Y201153D01*
X30668Y201613D01*
X30582Y202075D01*
X30507Y202539D01*
X30444Y203005D01*
X30392Y203472D01*
X30352Y203940D01*
X30323Y204409D01*
X30306Y204879D01*
X30300Y205349D01*
X30300Y256149D02*
X30306Y256619D01*
X30323Y257089D01*
X30352Y257558D01*
X30392Y258026D01*
X30444Y258493D01*
X30507Y258959D01*
X30582Y259423D01*
X30668Y259885D01*
X30765Y260345D01*
X30874Y260802D01*
X30994Y261257D01*
X31125Y261708D01*
X31267Y262156D01*
X31419Y262600D01*
X31583Y263041D01*
X31758Y263477D01*
X31943Y263909D01*
X32139Y264337D01*
X32345Y264759D01*
X32561Y265176D01*
X32788Y265588D01*
X33024Y265994D01*
X33271Y266394D01*
X33527Y266788D01*
X33793Y267176D01*
X34069Y267557D01*
X34353Y267931D01*
X34647Y268298D01*
X34949Y268657D01*
X35261Y269009D01*
X35581Y269354D01*
X35909Y269690D01*
X36245Y270018D01*
X36590Y270338D01*
X36942Y270650D01*
X37301Y270952D01*
X37668Y271246D01*
X38042Y271530D01*
X38423Y271806D01*
X38811Y272072D01*
X39205Y272328D01*
X39605Y272575D01*
X40011Y272811D01*
X40423Y273038D01*
X40840Y273254D01*
X41262Y273460D01*
X41690Y273656D01*
X42122Y273841D01*
X42558Y274016D01*
X42999Y274180D01*
X43443Y274332D01*
X43891Y274474D01*
X44342Y274605D01*
X44797Y274725D01*
X45254Y274834D01*
X45714Y274931D01*
X46176Y275017D01*
X46640Y275092D01*
X47106Y275155D01*
X47573Y275207D01*
X48041Y275247D01*
X48510Y275276D01*
X48980Y275293D01*
X49450Y275299D01*
X49920Y275293D01*
X50390Y275276D01*
X50859Y275247D01*
X51327Y275207D01*
X51794Y275155D01*
X52260Y275092D01*
X52724Y275017D01*
X53186Y274931D01*
X53646Y274834D01*
X54103Y274725D01*
X54558Y274605D01*
X55009Y274474D01*
X55457Y274332D01*
X55901Y274180D01*
X56342Y274016D01*
X56778Y273841D01*
X57210Y273656D01*
X57638Y273460D01*
X58060Y273254D01*
X58477Y273038D01*
X58889Y272811D01*
X59295Y272575D01*
X59695Y272328D01*
X60089Y272072D01*
X60477Y271806D01*
X60858Y271530D01*
X61232Y271246D01*
X61599Y270952D01*
X61958Y270650D01*
X62310Y270338D01*
X62655Y270018D01*
X62991Y269690D01*
X63319Y269354D01*
X63639Y269009D01*
X63951Y268657D01*
X64253Y268298D01*
X64547Y267931D01*
X64831Y267557D01*
X65107Y267176D01*
X65373Y266788D01*
X65629Y266394D01*
X65876Y265994D01*
X66112Y265588D01*
X66339Y265176D01*
X66555Y264759D01*
X66761Y264337D01*
X66957Y263909D01*
X67142Y263477D01*
X67317Y263041D01*
X67481Y262600D01*
X67633Y262156D01*
X67775Y261708D01*
X67906Y261257D01*
X68026Y260802D01*
X68135Y260345D01*
X68232Y259885D01*
X68318Y259423D01*
X68393Y258959D01*
X68456Y258493D01*
X68508Y258026D01*
X68548Y257558D01*
X68577Y257089D01*
X68594Y256619D01*
X68600Y256149D01*
X68594Y255679D01*
X68577Y255209D01*
X68548Y254740D01*
X68508Y254272D01*
X68456Y253805D01*
X68393Y253339D01*
X68318Y252875D01*
X68232Y252413D01*
X68135Y251953D01*
X68026Y251496D01*
X67906Y251041D01*
X67775Y250590D01*
X67633Y250142D01*
X67481Y249698D01*
X67317Y249257D01*
X67142Y248821D01*
X66957Y248389D01*
X66761Y247961D01*
X66555Y247539D01*
X66339Y247122D01*
X66112Y246710D01*
X65876Y246304D01*
X65629Y245904D01*
X65373Y245510D01*
X65107Y245122D01*
X64831Y244741D01*
X64547Y244367D01*
X64253Y244000D01*
X63951Y243641D01*
X63639Y243289D01*
X63319Y242944D01*
X62991Y242608D01*
X62655Y242280D01*
X62310Y241960D01*
X61958Y241648D01*
X61599Y241346D01*
X61232Y241052D01*
X60858Y240768D01*
X60477Y240492D01*
X60089Y240226D01*
X59695Y239970D01*
X59295Y239723D01*
X58889Y239487D01*
X58477Y239260D01*
X58060Y239044D01*
X57638Y238838D01*
X57210Y238642D01*
X56778Y238457D01*
X56342Y238282D01*
X55901Y238118D01*
X55457Y237966D01*
X55009Y237824D01*
X54558Y237693D01*
X54103Y237573D01*
X53646Y237464D01*
X53186Y237367D01*
X52724Y237281D01*
X52260Y237206D01*
X51794Y237143D01*
X51327Y237091D01*
X50859Y237051D01*
X50390Y237022D01*
X49920Y237005D01*
X49450Y236999D01*
X48980Y237005D01*
X48510Y237022D01*
X48041Y237051D01*
X47573Y237091D01*
X47106Y237143D01*
X46640Y237206D01*
X46176Y237281D01*
X45714Y237367D01*
X45254Y237464D01*
X44797Y237573D01*
X44342Y237693D01*
X43891Y237824D01*
X43443Y237966D01*
X42999Y238118D01*
X42558Y238282D01*
X42122Y238457D01*
X41690Y238642D01*
X41262Y238838D01*
X40840Y239044D01*
X40423Y239260D01*
X40011Y239487D01*
X39605Y239723D01*
X39205Y239970D01*
X38811Y240226D01*
X38423Y240492D01*
X38042Y240768D01*
X37668Y241052D01*
X37301Y241346D01*
X36942Y241648D01*
X36590Y241960D01*
X36245Y242280D01*
X35909Y242608D01*
X35581Y242944D01*
X35261Y243289D01*
X34949Y243641D01*
X34647Y244000D01*
X34353Y244367D01*
X34069Y244741D01*
X33793Y245122D01*
X33527Y245510D01*
X33271Y245904D01*
X33024Y246304D01*
X32788Y246710D01*
X32561Y247122D01*
X32345Y247539D01*
X32139Y247961D01*
X31943Y248389D01*
X31758Y248821D01*
X31583Y249257D01*
X31419Y249698D01*
X31267Y250142D01*
X31125Y250590D01*
X30994Y251041D01*
X30874Y251496D01*
X30765Y251953D01*
X30668Y252413D01*
X30582Y252875D01*
X30507Y253339D01*
X30444Y253805D01*
X30392Y254272D01*
X30352Y254740D01*
X30323Y255209D01*
X30306Y255679D01*
X30300Y256149D01*
D11*
X78018Y292621D02*
X82594Y285757D01*
X78018Y285757D02*
X82594Y292621D01*
X85502Y285757D02*
X90078Y285757D01*
X85502Y285757D02*
X90078Y290333D01*
X90078Y291477D01*
X88934Y292621D01*
X86646Y292621D01*
X85502Y291477D01*
D78*
X642810Y301740D02*
X655510Y301740D01*
X642810Y301740D02*
X636460Y308090D01*
X636460Y320790D02*
X642810Y327140D01*
X680910Y301740D02*
X687260Y308090D01*
X680910Y301740D02*
X668210Y301740D01*
X661860Y308090D01*
X661860Y320790D02*
X668210Y327140D01*
X680910Y327140D01*
X687260Y320790D01*
X661860Y308090D02*
X655510Y301740D01*
X661860Y320790D02*
X655510Y327140D01*
X642810Y327140D01*
X719010Y301740D02*
X731710Y301740D01*
X719010Y301740D02*
X712660Y308090D01*
X712660Y320790D02*
X719010Y327140D01*
X712660Y308090D02*
X706310Y301740D01*
X693610Y301740D01*
X687260Y308090D01*
X687260Y320790D02*
X693610Y327140D01*
X706310Y327140D01*
X712660Y320790D01*
X738060Y320790D02*
X738060Y308090D01*
X731710Y301740D01*
X738060Y320790D02*
X731710Y327140D01*
X719010Y327140D01*
X636460Y320790D02*
X636460Y308090D01*
D89*
X649160Y314440D03*
X674560Y314440D03*
X699960Y314440D03*
X725360Y314440D03*
D11*
X740727Y310121D02*
X741871Y308977D01*
X743015Y308977D01*
X744159Y310121D01*
X744159Y315841D01*
X743015Y315841D02*
X745303Y315841D01*
X748211Y308977D02*
X752787Y308977D01*
X748211Y308977D02*
X752787Y313553D01*
X752787Y314697D01*
X751643Y315841D01*
X749355Y315841D01*
X748211Y314697D01*
D79*
X667080Y12300D02*
X658440Y12300D01*
X658440Y19420D02*
X667080Y19420D01*
D80*
X669110Y15860D03*
X656410Y15860D03*
D11*
X684045Y23845D02*
X684045Y30709D01*
X687477Y30709D01*
X688621Y29565D01*
X688621Y27277D01*
X687477Y26133D01*
X684045Y26133D01*
X686333Y26133D02*
X688621Y23845D01*
X691529Y30709D02*
X696105Y30709D01*
X696105Y29565D01*
X691529Y24989D01*
X691529Y23845D01*
D86*
X542160Y273160D02*
X481160Y273160D01*
X481160Y310160D01*
X542160Y310160D01*
X542160Y273160D01*
D87*
X559040Y270780D02*
X464280Y270780D01*
X464280Y312540D01*
X559040Y312540D01*
X559040Y270780D01*
X542160Y273160D02*
X542160Y282660D01*
X542160Y273160D02*
X481160Y273160D01*
X481160Y282660D01*
X542160Y300660D02*
X542160Y310160D01*
X481160Y310160D01*
X481160Y300660D01*
D11*
X549243Y321995D02*
X550387Y320851D01*
X549243Y321995D02*
X546955Y321995D01*
X545811Y320851D01*
X545811Y319707D01*
X546955Y318563D01*
X549243Y318563D01*
X550387Y317419D01*
X550387Y316275D01*
X549243Y315131D01*
X546955Y315131D01*
X545811Y316275D01*
X553295Y315131D02*
X557871Y315131D01*
X553295Y315131D02*
X557871Y319707D01*
X557871Y320851D01*
X556727Y321995D01*
X554439Y321995D01*
X553295Y320851D01*
D79*
X621100Y61560D02*
X629740Y61560D01*
X629740Y54440D02*
X621100Y54440D01*
D80*
X619070Y58000D03*
X631770Y58000D03*
D11*
X642953Y56157D02*
X642953Y63021D01*
X646384Y63021D01*
X647528Y61877D01*
X647528Y59589D01*
X646384Y58445D01*
X642953Y58445D01*
X645240Y58445D02*
X647528Y56157D01*
X650437Y56157D02*
X655013Y56157D01*
X650437Y56157D02*
X655013Y60733D01*
X655013Y61877D01*
X653869Y63021D01*
X651581Y63021D01*
X650437Y61877D01*
X657921Y63021D02*
X662497Y63021D01*
X662497Y61877D01*
X657921Y57301D01*
X657921Y56157D01*
D79*
X629740Y41520D02*
X621100Y41520D01*
X621100Y34400D02*
X629740Y34400D01*
D80*
X619070Y37960D03*
X631770Y37960D03*
D11*
X551953Y24981D02*
X551953Y18117D01*
X551953Y24981D02*
X555384Y24981D01*
X556528Y23837D01*
X556528Y21549D01*
X555384Y20405D01*
X551953Y20405D01*
X554240Y20405D02*
X556528Y18117D01*
X559437Y22693D02*
X561725Y24981D01*
X561725Y18117D01*
X559437Y18117D02*
X564013Y18117D01*
X566921Y24981D02*
X571497Y24981D01*
X571497Y23837D01*
X566921Y19261D01*
X566921Y18117D01*
D79*
X402240Y233980D02*
X393600Y233980D01*
X393600Y226860D02*
X402240Y226860D01*
D80*
X391570Y230420D03*
X404270Y230420D03*
D11*
X382453Y223441D02*
X382453Y216577D01*
X382453Y223441D02*
X385884Y223441D01*
X387028Y222297D01*
X387028Y220009D01*
X385884Y218865D01*
X382453Y218865D01*
X384740Y218865D02*
X387028Y216577D01*
X389937Y222297D02*
X391081Y223441D01*
X393369Y223441D01*
X394513Y222297D01*
X394513Y221153D01*
X393369Y220009D01*
X392225Y220009D01*
X393369Y220009D02*
X394513Y218865D01*
X394513Y217721D01*
X393369Y216577D01*
X391081Y216577D01*
X389937Y217721D01*
X397421Y221153D02*
X399709Y223441D01*
X399709Y216577D01*
X397421Y216577D02*
X401997Y216577D01*
D79*
X662100Y40440D02*
X670740Y40440D01*
X670740Y33320D02*
X662100Y33320D01*
D80*
X660070Y36880D03*
X672770Y36880D03*
D11*
X655953Y46037D02*
X655953Y52901D01*
X659384Y52901D01*
X660528Y51757D01*
X660528Y49469D01*
X659384Y48325D01*
X655953Y48325D01*
X658240Y48325D02*
X660528Y46037D01*
X663437Y51757D02*
X664581Y52901D01*
X666869Y52901D01*
X668013Y51757D01*
X668013Y50613D01*
X666869Y49469D01*
X665725Y49469D01*
X666869Y49469D02*
X668013Y48325D01*
X668013Y47181D01*
X666869Y46037D01*
X664581Y46037D01*
X663437Y47181D01*
X670921Y46037D02*
X675497Y46037D01*
X670921Y46037D02*
X675497Y50613D01*
X675497Y51757D01*
X674353Y52901D01*
X672065Y52901D01*
X670921Y51757D01*
D79*
X402740Y260900D02*
X394100Y260900D01*
X394100Y253780D02*
X402740Y253780D01*
D80*
X392070Y257340D03*
X404770Y257340D03*
D11*
X382953Y250361D02*
X382953Y243497D01*
X382953Y250361D02*
X386384Y250361D01*
X387528Y249217D01*
X387528Y246929D01*
X386384Y245785D01*
X382953Y245785D01*
X385240Y245785D02*
X387528Y243497D01*
X390437Y249217D02*
X391581Y250361D01*
X393869Y250361D01*
X395013Y249217D01*
X395013Y248073D01*
X393869Y246929D01*
X392725Y246929D01*
X393869Y246929D02*
X395013Y245785D01*
X395013Y244641D01*
X393869Y243497D01*
X391581Y243497D01*
X390437Y244641D01*
X397921Y249217D02*
X399065Y250361D01*
X401353Y250361D01*
X402497Y249217D01*
X402497Y248073D01*
X401353Y246929D01*
X400209Y246929D01*
X401353Y246929D02*
X402497Y245785D01*
X402497Y244641D01*
X401353Y243497D01*
X399065Y243497D01*
X397921Y244641D01*
D79*
X394100Y182320D02*
X402740Y182320D01*
X402740Y175200D02*
X394100Y175200D01*
D80*
X392070Y178760D03*
X404770Y178760D03*
D11*
X382953Y171781D02*
X382953Y164917D01*
X382953Y171781D02*
X386384Y171781D01*
X387528Y170637D01*
X387528Y168349D01*
X386384Y167205D01*
X382953Y167205D01*
X385240Y167205D02*
X387528Y164917D01*
X390437Y170637D02*
X391581Y171781D01*
X393869Y171781D01*
X395013Y170637D01*
X395013Y169493D01*
X393869Y168349D01*
X392725Y168349D01*
X393869Y168349D02*
X395013Y167205D01*
X395013Y166061D01*
X393869Y164917D01*
X391581Y164917D01*
X390437Y166061D01*
X397921Y171781D02*
X402497Y171781D01*
X397921Y171781D02*
X397921Y168349D01*
X400209Y169493D01*
X401353Y169493D01*
X402497Y168349D01*
X402497Y166061D01*
X401353Y164917D01*
X399065Y164917D01*
X397921Y166061D01*
D79*
X402240Y207780D02*
X393600Y207780D01*
X393600Y200660D02*
X402240Y200660D01*
D80*
X391570Y204220D03*
X404270Y204220D03*
D11*
X382453Y197241D02*
X382453Y190377D01*
X382453Y197241D02*
X385884Y197241D01*
X387028Y196097D01*
X387028Y193809D01*
X385884Y192665D01*
X382453Y192665D01*
X384740Y192665D02*
X387028Y190377D01*
X389937Y196097D02*
X391081Y197241D01*
X393369Y197241D01*
X394513Y196097D01*
X394513Y194953D01*
X393369Y193809D01*
X392225Y193809D01*
X393369Y193809D02*
X394513Y192665D01*
X394513Y191521D01*
X393369Y190377D01*
X391081Y190377D01*
X389937Y191521D01*
X399709Y196097D02*
X401997Y197241D01*
X399709Y196097D02*
X397421Y193809D01*
X397421Y191521D01*
X398565Y190377D01*
X400853Y190377D01*
X401997Y191521D01*
X401997Y192665D01*
X400853Y193809D01*
X397421Y193809D01*
D87*
X10340Y119200D02*
X10340Y29200D01*
X25340Y29200D02*
X25340Y119200D01*
X10340Y119200D01*
X25340Y119200D02*
X152340Y119200D01*
X152340Y29200D02*
X10340Y29200D01*
X25340Y29200D01*
X97240Y29200D01*
X152340Y29200D02*
X152340Y119200D01*
D11*
X36859Y19555D02*
X35715Y20699D01*
X36859Y19555D02*
X38003Y19555D01*
X39147Y20699D01*
X39147Y26419D01*
X38003Y26419D02*
X40291Y26419D01*
X45487Y25275D02*
X47775Y26419D01*
X45487Y25275D02*
X43199Y22987D01*
X43199Y20699D01*
X44343Y19555D01*
X46631Y19555D01*
X47775Y20699D01*
X47775Y21843D01*
X46631Y22987D01*
X43199Y22987D01*
D79*
X680613Y293611D02*
X689253Y293611D01*
X689253Y286491D02*
X680613Y286491D01*
D80*
X678583Y290051D03*
X691283Y290051D03*
D11*
X659352Y275798D02*
X659352Y268934D01*
X659352Y275798D02*
X662783Y275798D01*
X663927Y274654D01*
X663927Y272366D01*
X662783Y271222D01*
X659352Y271222D01*
X661640Y271222D02*
X663927Y268934D01*
X666836Y274654D02*
X667980Y275798D01*
X670268Y275798D01*
X671412Y274654D01*
X671412Y273510D01*
X670268Y272366D01*
X669124Y272366D01*
X670268Y272366D02*
X671412Y271222D01*
X671412Y270078D01*
X670268Y268934D01*
X667980Y268934D01*
X666836Y270078D01*
X674320Y270078D02*
X675464Y268934D01*
X677752Y268934D01*
X678896Y270078D01*
X678896Y274654D01*
X677752Y275798D01*
X675464Y275798D01*
X674320Y274654D01*
X674320Y273510D01*
X675464Y272366D01*
X678896Y272366D01*
D79*
X581320Y34440D02*
X572680Y34440D01*
X572680Y41560D02*
X581320Y41560D01*
D80*
X583350Y38000D03*
X570650Y38000D03*
D11*
X541285Y35821D02*
X541285Y28985D01*
X541285Y35821D02*
X544703Y35821D01*
X545842Y34682D01*
X545842Y32403D01*
X544703Y31264D01*
X541285Y31264D01*
X543564Y31264D02*
X545842Y28985D01*
X552161Y28985D02*
X552161Y35821D01*
X548743Y32403D01*
X553301Y32403D01*
X556202Y33542D02*
X558480Y35821D01*
X558480Y28985D01*
X556202Y28985D02*
X560759Y28985D01*
D76*
X573750Y54500D02*
X588250Y54500D01*
X588250Y61500D02*
X573750Y61500D01*
D77*
X587250Y58000D03*
X574750Y58000D03*
D11*
X545817Y59732D02*
X544678Y60871D01*
X542399Y60871D01*
X541260Y59732D01*
X541260Y55174D01*
X542399Y54035D01*
X544678Y54035D01*
X545817Y55174D01*
X548718Y54035D02*
X553275Y54035D01*
X548718Y54035D02*
X553275Y58592D01*
X553275Y59732D01*
X552136Y60871D01*
X549858Y60871D01*
X548718Y59732D01*
X556177Y59732D02*
X556177Y55174D01*
X556177Y59732D02*
X557316Y60871D01*
X559595Y60871D01*
X560734Y59732D01*
X560734Y55174D01*
X559595Y54035D01*
X557316Y54035D01*
X556177Y55174D01*
X560734Y59732D01*
M02*
