G04 EAGLE Gerber RS-274X export*
G75*
%MOMM*%
%FSLAX34Y34*%
%LPD*%
%INSoldermask Bottom*%
%IPPOS*%
%AMOC8*
5,1,8,0,0,1.08239X$1,22.5*%
G01*
%ADD10C,3.303200*%
%ADD11R,1.303200X1.203200*%
%ADD12R,1.203200X1.303200*%
%ADD13R,1.203200X1.603200*%
%ADD14R,1.473200X1.203200*%
%ADD15R,1.283200X1.253200*%
%ADD16R,0.753200X0.803200*%
%ADD17C,1.727200*%
%ADD18C,2.108200*%
%ADD19R,1.253200X1.283200*%
%ADD20R,1.353200X0.803200*%
%ADD21C,1.611200*%
%ADD22C,2.203200*%
%ADD23C,2.082800*%
%ADD24R,2.603200X1.703200*%
%ADD25C,1.625600*%
%ADD26C,1.620000*%
%ADD27C,1.008600*%
%ADD28C,1.016000*%
%ADD29C,1.009600*%
%ADD30C,3.203200*%


D10*
X730000Y30000D03*
X236639Y298442D03*
D11*
X357880Y121696D03*
X357880Y138696D03*
D12*
X310130Y90546D03*
X327130Y90546D03*
D13*
X295080Y142971D03*
X285580Y120971D03*
X304580Y120971D03*
X328180Y143471D03*
X318680Y121471D03*
X337680Y121471D03*
D12*
X383826Y91665D03*
X366826Y91665D03*
D14*
X85640Y239184D03*
X105640Y229684D03*
X105640Y248684D03*
D12*
X105446Y285350D03*
X88446Y285350D03*
D15*
X24032Y217445D03*
X24032Y234945D03*
D12*
X88695Y266338D03*
X105695Y266338D03*
D11*
X715445Y240809D03*
X715445Y257809D03*
D16*
X111516Y54552D03*
X111516Y67552D03*
X130016Y61052D03*
D11*
X601997Y303077D03*
X601997Y286077D03*
D17*
X195907Y105215D03*
X195907Y49215D03*
D18*
X174407Y77215D03*
D19*
X712422Y293391D03*
X694922Y293391D03*
X236116Y119184D03*
X253616Y119184D03*
D12*
X22725Y125237D03*
X22725Y142237D03*
D11*
X133960Y120820D03*
X116960Y120820D03*
D20*
X130680Y190540D03*
X130680Y181040D03*
X130680Y171540D03*
X104680Y171540D03*
X104680Y181040D03*
X104680Y190540D03*
D21*
X359660Y207300D03*
X359660Y232700D03*
X359660Y258100D03*
X283460Y258100D03*
X283460Y232700D03*
X283460Y207300D03*
D22*
X49450Y154549D03*
X49450Y205349D03*
X49450Y256149D03*
D23*
X632360Y15700D03*
X606960Y15700D03*
X581560Y15700D03*
X725360Y314440D03*
X699960Y314440D03*
X674560Y314440D03*
X649160Y314440D03*
X261860Y145260D03*
X236460Y145260D03*
D19*
X654010Y15580D03*
X671510Y15580D03*
D12*
X104740Y152020D03*
X87740Y152020D03*
D15*
X84580Y172510D03*
X84580Y190010D03*
D19*
X96010Y206300D03*
X113510Y206300D03*
D15*
X43180Y104490D03*
X43180Y86990D03*
X66060Y104490D03*
X66060Y86990D03*
X22440Y104490D03*
X22440Y86990D03*
D11*
X621840Y303740D03*
X621840Y286740D03*
X642300Y289740D03*
X642300Y272740D03*
D24*
X544600Y191840D03*
X478600Y191840D03*
X544720Y242340D03*
X478720Y242340D03*
D11*
X664929Y236580D03*
X664929Y253580D03*
X685280Y236580D03*
X685280Y253580D03*
X715576Y210339D03*
X715576Y227339D03*
X256500Y246260D03*
X239500Y246260D03*
D19*
X257170Y228900D03*
X239670Y228900D03*
D12*
X502920Y136700D03*
X485920Y136700D03*
X502920Y157320D03*
X485920Y157320D03*
D25*
X85340Y92200D03*
X85340Y62200D03*
X105340Y29200D03*
X135340Y29200D03*
X145340Y94700D03*
X145340Y59700D03*
D26*
X85340Y62200D02*
X85340Y92200D01*
X105340Y29200D02*
X135340Y29200D01*
X145340Y59700D02*
X145340Y94700D01*
D12*
X683500Y274311D03*
X666500Y274311D03*
D19*
X731250Y280000D03*
X748750Y280000D03*
D27*
X286500Y103000D03*
X310000Y150000D03*
D28*
X352582Y106399D03*
X704565Y204083D03*
X527872Y167283D03*
D27*
X508000Y101000D03*
X541000Y115000D03*
X358798Y75706D03*
X378000Y76000D03*
X399000Y69000D03*
X566000Y76000D03*
D29*
X268000Y86650D03*
X261650Y67600D03*
D28*
X270675Y103350D03*
X239349Y44669D03*
X204573Y239471D03*
X204573Y223913D03*
X204573Y192798D03*
X194603Y204038D03*
X235942Y196291D03*
D30*
X671040Y166600D03*
D27*
X687000Y16000D03*
X502000Y190000D03*
X518000Y179000D03*
X426000Y265000D03*
X464000Y265000D03*
X426000Y206000D03*
X483000Y101000D03*
X506000Y81000D03*
X419000Y118000D03*
X82000Y204000D03*
X82000Y218000D03*
X71000Y136000D03*
X35000Y180000D03*
X140000Y203000D03*
X178000Y150000D03*
X368381Y58000D03*
X475000Y47000D03*
X475000Y23000D03*
X676000Y94000D03*
X586000Y184000D03*
X586000Y164000D03*
X586000Y144000D03*
X586000Y124000D03*
X606000Y124000D03*
X626000Y124000D03*
X646000Y124000D03*
X666000Y124000D03*
X686000Y124000D03*
X706000Y124000D03*
X726000Y124000D03*
X746000Y124000D03*
X746000Y144000D03*
X746000Y164000D03*
X746000Y184000D03*
X746000Y204000D03*
X746000Y224000D03*
X726000Y164000D03*
X726000Y184000D03*
X616000Y184000D03*
X616000Y164000D03*
X616000Y144000D03*
X751000Y60000D03*
X699000Y9000D03*
X749000Y294000D03*
X588000Y321000D03*
X509000Y264000D03*
X488000Y264000D03*
X272000Y269000D03*
X182000Y321000D03*
X152000Y321000D03*
X122000Y321000D03*
X92000Y321000D03*
X62000Y321000D03*
X32000Y321000D03*
X12000Y281000D03*
X12000Y251000D03*
X12000Y221000D03*
X12000Y191000D03*
X12000Y161000D03*
X12000Y71000D03*
X12000Y51000D03*
X42000Y11000D03*
X72000Y11000D03*
X102000Y11000D03*
X132000Y11000D03*
X162000Y11000D03*
X192000Y11000D03*
X222000Y11000D03*
X262000Y11000D03*
X502000Y11000D03*
X532000Y11000D03*
X562000Y11000D03*
X382000Y11000D03*
X302000Y261000D03*
X342000Y261000D03*
X310000Y199000D03*
X436000Y93000D03*
X697000Y91000D03*
X449000Y61000D03*
X694252Y61748D03*
X450000Y48000D03*
D28*
X293400Y26643D03*
X322183Y31643D03*
X290575Y49169D03*
X399697Y120171D03*
X264453Y186019D03*
X264453Y173573D03*
D27*
X697806Y274311D03*
X408000Y27000D03*
X220000Y265000D03*
X442000Y239000D03*
X461000Y154000D03*
X694000Y39000D03*
X734806Y242311D03*
X220000Y252000D03*
X220000Y240000D03*
X207000Y265000D03*
X106000Y137000D03*
D28*
X212565Y97064D03*
X212565Y53503D03*
X253014Y103287D03*
D27*
X548000Y223000D03*
X633000Y107000D03*
X659000Y94000D03*
X407000Y217000D03*
D28*
X174728Y220103D03*
X220892Y176073D03*
X124436Y235026D03*
X175153Y162839D03*
D27*
X152000Y216357D03*
X141000Y215857D03*
X701000Y240000D03*
X602000Y321000D03*
X75000Y152000D03*
X165000Y118500D03*
X171000Y33000D03*
X605000Y37000D03*
X646000Y37000D03*
X615000Y320000D03*
X629717Y320000D03*
X701000Y227000D03*
X675000Y226000D03*
X565000Y271000D03*
X547000Y45000D03*
X420000Y159000D03*
X418000Y230000D03*
X684186Y46683D03*
X735000Y92000D03*
X518000Y46000D03*
M02*
