G04 EAGLE Gerber RS-274X export*
G75*
%MOMM*%
%FSLAX34Y34*%
%LPD*%
%INSoldermask Top*%
%IPPOS*%
%AMOC8*
5,1,8,0,0,1.08239X$1,22.5*%
G01*
%ADD10C,3.303200*%
%ADD11R,1.253200X1.283200*%
%ADD12R,1.050000X0.400000*%
%ADD13R,3.000000X3.000000*%
%ADD14R,0.400000X1.050000*%
%ADD15R,1.203200X1.303200*%
%ADD16R,1.103200X1.703200*%
%ADD17R,1.703200X1.103200*%
%ADD18R,6.203200X6.203200*%
%ADD19R,1.283200X1.253200*%
%ADD20R,1.303200X1.203200*%
%ADD21R,0.803200X0.753200*%
%ADD22R,2.803200X0.853200*%
%ADD23R,0.753200X1.403200*%
%ADD24R,4.903200X1.453200*%
%ADD25C,1.203200*%
%ADD26R,1.703200X0.653200*%
%ADD27C,1.727200*%
%ADD28C,2.108200*%
%ADD29R,1.603200X1.203200*%
%ADD30C,0.500000*%
%ADD31R,0.873200X1.403200*%
%ADD32R,0.573200X1.403200*%
%ADD33C,1.611200*%
%ADD34C,2.203200*%
%ADD35C,2.082800*%
%ADD36R,2.603200X1.703200*%
%ADD37C,1.625600*%
%ADD38C,1.620000*%
%ADD39C,1.008600*%
%ADD40C,1.016000*%
%ADD41C,1.009600*%
%ADD42C,3.203200*%


D10*
X730000Y30000D03*
X236639Y298442D03*
D11*
X397988Y149078D03*
X380488Y149078D03*
X398308Y131476D03*
X380808Y131476D03*
X253134Y115468D03*
X270634Y115468D03*
D12*
X296725Y95300D03*
X296725Y90300D03*
D13*
X321975Y80300D03*
D12*
X296725Y85300D03*
X296725Y80300D03*
X296725Y75300D03*
X296725Y70300D03*
X296725Y65300D03*
D14*
X336975Y105550D03*
X331975Y105550D03*
X326975Y105550D03*
X321975Y105550D03*
X316975Y105550D03*
X311975Y105550D03*
X306975Y105550D03*
X306975Y55050D03*
X311975Y55050D03*
X316975Y55050D03*
X321975Y55050D03*
X326975Y55050D03*
X331975Y55050D03*
X336975Y55050D03*
D12*
X347225Y65300D03*
X347225Y70300D03*
X347225Y75300D03*
X347225Y80300D03*
X347225Y85300D03*
X347225Y90300D03*
X347225Y95300D03*
D15*
X343175Y150023D03*
X326175Y150023D03*
X343175Y127862D03*
X326175Y127862D03*
X232532Y67690D03*
X249532Y67690D03*
X232532Y83565D03*
X249532Y83565D03*
D16*
X747900Y256711D03*
X735200Y256711D03*
X722500Y256711D03*
X709800Y256711D03*
X697100Y256711D03*
X684400Y256711D03*
X671700Y256711D03*
X659000Y256711D03*
X646300Y256711D03*
X633600Y256711D03*
X620900Y256711D03*
X608200Y256711D03*
X595500Y256711D03*
X582800Y256711D03*
D17*
X567900Y223861D03*
X567900Y211161D03*
X567900Y198461D03*
X567900Y185761D03*
X567900Y173061D03*
X567900Y160361D03*
X567900Y147661D03*
X567900Y134961D03*
X567900Y122261D03*
X567900Y109561D03*
D16*
X582800Y76711D03*
X595500Y76711D03*
X608200Y76711D03*
X620900Y76711D03*
X633600Y76711D03*
X646300Y76711D03*
X659000Y76711D03*
X671700Y76711D03*
X684400Y76711D03*
X697100Y76711D03*
X709800Y76711D03*
X722500Y76711D03*
X735200Y76711D03*
X747900Y76711D03*
D18*
X670900Y166711D03*
D15*
X502853Y138399D03*
X485853Y138399D03*
D19*
X521358Y154620D03*
X521358Y137120D03*
D15*
X360225Y35850D03*
X343225Y35850D03*
D20*
X277525Y63400D03*
X277525Y46400D03*
X258864Y32989D03*
X258864Y49989D03*
D15*
X360352Y15244D03*
X343352Y15244D03*
D19*
X728566Y276151D03*
X728566Y293651D03*
X712437Y276151D03*
X712437Y293651D03*
D21*
X238969Y114395D03*
X225969Y114395D03*
X232469Y95895D03*
X226531Y35392D03*
X239531Y35392D03*
X233031Y53892D03*
D22*
X481422Y224915D03*
X481422Y212215D03*
X481422Y199515D03*
X481422Y186815D03*
X481422Y174115D03*
X444422Y224915D03*
X444422Y212215D03*
X444422Y199515D03*
X444422Y186815D03*
X444422Y174115D03*
X389661Y34353D03*
X389661Y47053D03*
X389661Y59753D03*
X426661Y34353D03*
X426661Y47053D03*
X426661Y59753D03*
D20*
X589321Y276304D03*
X589321Y293304D03*
D15*
X523152Y256627D03*
X540152Y256627D03*
D20*
X541200Y153726D03*
X541200Y136726D03*
D15*
X523660Y211034D03*
X540660Y211034D03*
X523787Y233704D03*
X540787Y233704D03*
D23*
X184482Y208148D03*
X174982Y208148D03*
X165482Y208148D03*
X165482Y182148D03*
X174982Y182148D03*
X184482Y182148D03*
D19*
X207938Y158726D03*
X207938Y176226D03*
D20*
X190285Y147976D03*
X190285Y164976D03*
D19*
X107354Y216534D03*
X107354Y199034D03*
X125007Y216534D03*
X125007Y199034D03*
X218860Y228980D03*
X218860Y211480D03*
X234926Y228980D03*
X234926Y211480D03*
X250991Y228980D03*
X250991Y211480D03*
D20*
X107348Y248612D03*
X107348Y231612D03*
X160377Y160277D03*
X160377Y143277D03*
X139168Y160277D03*
X139168Y143277D03*
X117927Y160277D03*
X117927Y143277D03*
D24*
X163361Y239794D03*
X163361Y272294D03*
D25*
X107545Y263982D03*
X235815Y251599D03*
D26*
X193407Y77215D03*
X193407Y83715D03*
X193407Y64215D03*
X193407Y70715D03*
D27*
X195907Y105215D03*
X195907Y49215D03*
D28*
X174407Y77215D03*
D26*
X193407Y90215D03*
D20*
X347708Y184062D03*
X347708Y167062D03*
D29*
X284893Y172345D03*
X306893Y181845D03*
X306893Y162845D03*
D20*
X326890Y167091D03*
X326890Y184091D03*
D30*
X20000Y307500D02*
X19819Y307498D01*
X19638Y307491D01*
X19457Y307480D01*
X19276Y307465D01*
X19096Y307445D01*
X18916Y307421D01*
X18737Y307393D01*
X18559Y307360D01*
X18382Y307323D01*
X18205Y307282D01*
X18030Y307237D01*
X17855Y307187D01*
X17682Y307133D01*
X17511Y307075D01*
X17340Y307013D01*
X17172Y306946D01*
X17005Y306876D01*
X16839Y306802D01*
X16676Y306723D01*
X16515Y306641D01*
X16355Y306555D01*
X16198Y306465D01*
X16043Y306371D01*
X15890Y306274D01*
X15740Y306172D01*
X15592Y306068D01*
X15446Y305959D01*
X15304Y305848D01*
X15164Y305732D01*
X15027Y305614D01*
X14892Y305492D01*
X14761Y305367D01*
X14633Y305239D01*
X14508Y305108D01*
X14386Y304973D01*
X14268Y304836D01*
X14152Y304696D01*
X14041Y304554D01*
X13932Y304408D01*
X13828Y304260D01*
X13726Y304110D01*
X13629Y303957D01*
X13535Y303802D01*
X13445Y303645D01*
X13359Y303485D01*
X13277Y303324D01*
X13198Y303161D01*
X13124Y302995D01*
X13054Y302828D01*
X12987Y302660D01*
X12925Y302489D01*
X12867Y302318D01*
X12813Y302145D01*
X12763Y301970D01*
X12718Y301795D01*
X12677Y301618D01*
X12640Y301441D01*
X12607Y301263D01*
X12579Y301084D01*
X12555Y300904D01*
X12535Y300724D01*
X12520Y300543D01*
X12509Y300362D01*
X12502Y300181D01*
X12500Y300000D01*
X20000Y307500D02*
X20181Y307498D01*
X20362Y307491D01*
X20543Y307480D01*
X20724Y307465D01*
X20904Y307445D01*
X21084Y307421D01*
X21263Y307393D01*
X21441Y307360D01*
X21618Y307323D01*
X21795Y307282D01*
X21970Y307237D01*
X22145Y307187D01*
X22318Y307133D01*
X22489Y307075D01*
X22660Y307013D01*
X22828Y306946D01*
X22995Y306876D01*
X23161Y306802D01*
X23324Y306723D01*
X23485Y306641D01*
X23645Y306555D01*
X23802Y306465D01*
X23957Y306371D01*
X24110Y306274D01*
X24260Y306172D01*
X24408Y306068D01*
X24554Y305959D01*
X24696Y305848D01*
X24836Y305732D01*
X24973Y305614D01*
X25108Y305492D01*
X25239Y305367D01*
X25367Y305239D01*
X25492Y305108D01*
X25614Y304973D01*
X25732Y304836D01*
X25848Y304696D01*
X25959Y304554D01*
X26068Y304408D01*
X26172Y304260D01*
X26274Y304110D01*
X26371Y303957D01*
X26465Y303802D01*
X26555Y303645D01*
X26641Y303485D01*
X26723Y303324D01*
X26802Y303161D01*
X26876Y302995D01*
X26946Y302828D01*
X27013Y302660D01*
X27075Y302489D01*
X27133Y302318D01*
X27187Y302145D01*
X27237Y301970D01*
X27282Y301795D01*
X27323Y301618D01*
X27360Y301441D01*
X27393Y301263D01*
X27421Y301084D01*
X27445Y300904D01*
X27465Y300724D01*
X27480Y300543D01*
X27491Y300362D01*
X27498Y300181D01*
X27500Y300000D01*
X27498Y299819D01*
X27491Y299638D01*
X27480Y299457D01*
X27465Y299276D01*
X27445Y299096D01*
X27421Y298916D01*
X27393Y298737D01*
X27360Y298559D01*
X27323Y298382D01*
X27282Y298205D01*
X27237Y298030D01*
X27187Y297855D01*
X27133Y297682D01*
X27075Y297511D01*
X27013Y297340D01*
X26946Y297172D01*
X26876Y297005D01*
X26802Y296839D01*
X26723Y296676D01*
X26641Y296515D01*
X26555Y296355D01*
X26465Y296198D01*
X26371Y296043D01*
X26274Y295890D01*
X26172Y295740D01*
X26068Y295592D01*
X25959Y295446D01*
X25848Y295304D01*
X25732Y295164D01*
X25614Y295027D01*
X25492Y294892D01*
X25367Y294761D01*
X25239Y294633D01*
X25108Y294508D01*
X24973Y294386D01*
X24836Y294268D01*
X24696Y294152D01*
X24554Y294041D01*
X24408Y293932D01*
X24260Y293828D01*
X24110Y293726D01*
X23957Y293629D01*
X23802Y293535D01*
X23645Y293445D01*
X23485Y293359D01*
X23324Y293277D01*
X23161Y293198D01*
X22995Y293124D01*
X22828Y293054D01*
X22660Y292987D01*
X22489Y292925D01*
X22318Y292867D01*
X22145Y292813D01*
X21970Y292763D01*
X21795Y292718D01*
X21618Y292677D01*
X21441Y292640D01*
X21263Y292607D01*
X21084Y292579D01*
X20904Y292555D01*
X20724Y292535D01*
X20543Y292520D01*
X20362Y292509D01*
X20181Y292502D01*
X20000Y292500D01*
X19819Y292502D01*
X19638Y292509D01*
X19457Y292520D01*
X19276Y292535D01*
X19096Y292555D01*
X18916Y292579D01*
X18737Y292607D01*
X18559Y292640D01*
X18382Y292677D01*
X18205Y292718D01*
X18030Y292763D01*
X17855Y292813D01*
X17682Y292867D01*
X17511Y292925D01*
X17340Y292987D01*
X17172Y293054D01*
X17005Y293124D01*
X16839Y293198D01*
X16676Y293277D01*
X16515Y293359D01*
X16355Y293445D01*
X16198Y293535D01*
X16043Y293629D01*
X15890Y293726D01*
X15740Y293828D01*
X15592Y293932D01*
X15446Y294041D01*
X15304Y294152D01*
X15164Y294268D01*
X15027Y294386D01*
X14892Y294508D01*
X14761Y294633D01*
X14633Y294761D01*
X14508Y294892D01*
X14386Y295027D01*
X14268Y295164D01*
X14152Y295304D01*
X14041Y295446D01*
X13932Y295592D01*
X13828Y295740D01*
X13726Y295890D01*
X13629Y296043D01*
X13535Y296198D01*
X13445Y296355D01*
X13359Y296515D01*
X13277Y296676D01*
X13198Y296839D01*
X13124Y297005D01*
X13054Y297172D01*
X12987Y297340D01*
X12925Y297511D01*
X12867Y297682D01*
X12813Y297855D01*
X12763Y298030D01*
X12718Y298205D01*
X12677Y298382D01*
X12640Y298559D01*
X12607Y298737D01*
X12579Y298916D01*
X12555Y299096D01*
X12535Y299276D01*
X12520Y299457D01*
X12509Y299638D01*
X12502Y299819D01*
X12500Y300000D01*
X432500Y282000D02*
X432502Y282181D01*
X432509Y282362D01*
X432520Y282543D01*
X432535Y282724D01*
X432555Y282904D01*
X432579Y283084D01*
X432607Y283263D01*
X432640Y283441D01*
X432677Y283618D01*
X432718Y283795D01*
X432763Y283970D01*
X432813Y284145D01*
X432867Y284318D01*
X432925Y284489D01*
X432987Y284660D01*
X433054Y284828D01*
X433124Y284995D01*
X433198Y285161D01*
X433277Y285324D01*
X433359Y285485D01*
X433445Y285645D01*
X433535Y285802D01*
X433629Y285957D01*
X433726Y286110D01*
X433828Y286260D01*
X433932Y286408D01*
X434041Y286554D01*
X434152Y286696D01*
X434268Y286836D01*
X434386Y286973D01*
X434508Y287108D01*
X434633Y287239D01*
X434761Y287367D01*
X434892Y287492D01*
X435027Y287614D01*
X435164Y287732D01*
X435304Y287848D01*
X435446Y287959D01*
X435592Y288068D01*
X435740Y288172D01*
X435890Y288274D01*
X436043Y288371D01*
X436198Y288465D01*
X436355Y288555D01*
X436515Y288641D01*
X436676Y288723D01*
X436839Y288802D01*
X437005Y288876D01*
X437172Y288946D01*
X437340Y289013D01*
X437511Y289075D01*
X437682Y289133D01*
X437855Y289187D01*
X438030Y289237D01*
X438205Y289282D01*
X438382Y289323D01*
X438559Y289360D01*
X438737Y289393D01*
X438916Y289421D01*
X439096Y289445D01*
X439276Y289465D01*
X439457Y289480D01*
X439638Y289491D01*
X439819Y289498D01*
X440000Y289500D01*
X440181Y289498D01*
X440362Y289491D01*
X440543Y289480D01*
X440724Y289465D01*
X440904Y289445D01*
X441084Y289421D01*
X441263Y289393D01*
X441441Y289360D01*
X441618Y289323D01*
X441795Y289282D01*
X441970Y289237D01*
X442145Y289187D01*
X442318Y289133D01*
X442489Y289075D01*
X442660Y289013D01*
X442828Y288946D01*
X442995Y288876D01*
X443161Y288802D01*
X443324Y288723D01*
X443485Y288641D01*
X443645Y288555D01*
X443802Y288465D01*
X443957Y288371D01*
X444110Y288274D01*
X444260Y288172D01*
X444408Y288068D01*
X444554Y287959D01*
X444696Y287848D01*
X444836Y287732D01*
X444973Y287614D01*
X445108Y287492D01*
X445239Y287367D01*
X445367Y287239D01*
X445492Y287108D01*
X445614Y286973D01*
X445732Y286836D01*
X445848Y286696D01*
X445959Y286554D01*
X446068Y286408D01*
X446172Y286260D01*
X446274Y286110D01*
X446371Y285957D01*
X446465Y285802D01*
X446555Y285645D01*
X446641Y285485D01*
X446723Y285324D01*
X446802Y285161D01*
X446876Y284995D01*
X446946Y284828D01*
X447013Y284660D01*
X447075Y284489D01*
X447133Y284318D01*
X447187Y284145D01*
X447237Y283970D01*
X447282Y283795D01*
X447323Y283618D01*
X447360Y283441D01*
X447393Y283263D01*
X447421Y283084D01*
X447445Y282904D01*
X447465Y282724D01*
X447480Y282543D01*
X447491Y282362D01*
X447498Y282181D01*
X447500Y282000D01*
X447498Y281819D01*
X447491Y281638D01*
X447480Y281457D01*
X447465Y281276D01*
X447445Y281096D01*
X447421Y280916D01*
X447393Y280737D01*
X447360Y280559D01*
X447323Y280382D01*
X447282Y280205D01*
X447237Y280030D01*
X447187Y279855D01*
X447133Y279682D01*
X447075Y279511D01*
X447013Y279340D01*
X446946Y279172D01*
X446876Y279005D01*
X446802Y278839D01*
X446723Y278676D01*
X446641Y278515D01*
X446555Y278355D01*
X446465Y278198D01*
X446371Y278043D01*
X446274Y277890D01*
X446172Y277740D01*
X446068Y277592D01*
X445959Y277446D01*
X445848Y277304D01*
X445732Y277164D01*
X445614Y277027D01*
X445492Y276892D01*
X445367Y276761D01*
X445239Y276633D01*
X445108Y276508D01*
X444973Y276386D01*
X444836Y276268D01*
X444696Y276152D01*
X444554Y276041D01*
X444408Y275932D01*
X444260Y275828D01*
X444110Y275726D01*
X443957Y275629D01*
X443802Y275535D01*
X443645Y275445D01*
X443485Y275359D01*
X443324Y275277D01*
X443161Y275198D01*
X442995Y275124D01*
X442828Y275054D01*
X442660Y274987D01*
X442489Y274925D01*
X442318Y274867D01*
X442145Y274813D01*
X441970Y274763D01*
X441795Y274718D01*
X441618Y274677D01*
X441441Y274640D01*
X441263Y274607D01*
X441084Y274579D01*
X440904Y274555D01*
X440724Y274535D01*
X440543Y274520D01*
X440362Y274509D01*
X440181Y274502D01*
X440000Y274500D01*
X439819Y274502D01*
X439638Y274509D01*
X439457Y274520D01*
X439276Y274535D01*
X439096Y274555D01*
X438916Y274579D01*
X438737Y274607D01*
X438559Y274640D01*
X438382Y274677D01*
X438205Y274718D01*
X438030Y274763D01*
X437855Y274813D01*
X437682Y274867D01*
X437511Y274925D01*
X437340Y274987D01*
X437172Y275054D01*
X437005Y275124D01*
X436839Y275198D01*
X436676Y275277D01*
X436515Y275359D01*
X436355Y275445D01*
X436198Y275535D01*
X436043Y275629D01*
X435890Y275726D01*
X435740Y275828D01*
X435592Y275932D01*
X435446Y276041D01*
X435304Y276152D01*
X435164Y276268D01*
X435027Y276386D01*
X434892Y276508D01*
X434761Y276633D01*
X434633Y276761D01*
X434508Y276892D01*
X434386Y277027D01*
X434268Y277164D01*
X434152Y277304D01*
X434041Y277446D01*
X433932Y277592D01*
X433828Y277740D01*
X433726Y277890D01*
X433629Y278043D01*
X433535Y278198D01*
X433445Y278355D01*
X433359Y278515D01*
X433277Y278676D01*
X433198Y278839D01*
X433124Y279005D01*
X433054Y279172D01*
X432987Y279340D01*
X432925Y279511D01*
X432867Y279682D01*
X432813Y279855D01*
X432763Y280030D01*
X432718Y280205D01*
X432677Y280382D01*
X432640Y280559D01*
X432607Y280737D01*
X432579Y280916D01*
X432555Y281096D01*
X432535Y281276D01*
X432520Y281457D01*
X432509Y281638D01*
X432502Y281819D01*
X432500Y282000D01*
X20000Y27500D02*
X19819Y27498D01*
X19638Y27491D01*
X19457Y27480D01*
X19276Y27465D01*
X19096Y27445D01*
X18916Y27421D01*
X18737Y27393D01*
X18559Y27360D01*
X18382Y27323D01*
X18205Y27282D01*
X18030Y27237D01*
X17855Y27187D01*
X17682Y27133D01*
X17511Y27075D01*
X17340Y27013D01*
X17172Y26946D01*
X17005Y26876D01*
X16839Y26802D01*
X16676Y26723D01*
X16515Y26641D01*
X16355Y26555D01*
X16198Y26465D01*
X16043Y26371D01*
X15890Y26274D01*
X15740Y26172D01*
X15592Y26068D01*
X15446Y25959D01*
X15304Y25848D01*
X15164Y25732D01*
X15027Y25614D01*
X14892Y25492D01*
X14761Y25367D01*
X14633Y25239D01*
X14508Y25108D01*
X14386Y24973D01*
X14268Y24836D01*
X14152Y24696D01*
X14041Y24554D01*
X13932Y24408D01*
X13828Y24260D01*
X13726Y24110D01*
X13629Y23957D01*
X13535Y23802D01*
X13445Y23645D01*
X13359Y23485D01*
X13277Y23324D01*
X13198Y23161D01*
X13124Y22995D01*
X13054Y22828D01*
X12987Y22660D01*
X12925Y22489D01*
X12867Y22318D01*
X12813Y22145D01*
X12763Y21970D01*
X12718Y21795D01*
X12677Y21618D01*
X12640Y21441D01*
X12607Y21263D01*
X12579Y21084D01*
X12555Y20904D01*
X12535Y20724D01*
X12520Y20543D01*
X12509Y20362D01*
X12502Y20181D01*
X12500Y20000D01*
X20000Y27500D02*
X20181Y27498D01*
X20362Y27491D01*
X20543Y27480D01*
X20724Y27465D01*
X20904Y27445D01*
X21084Y27421D01*
X21263Y27393D01*
X21441Y27360D01*
X21618Y27323D01*
X21795Y27282D01*
X21970Y27237D01*
X22145Y27187D01*
X22318Y27133D01*
X22489Y27075D01*
X22660Y27013D01*
X22828Y26946D01*
X22995Y26876D01*
X23161Y26802D01*
X23324Y26723D01*
X23485Y26641D01*
X23645Y26555D01*
X23802Y26465D01*
X23957Y26371D01*
X24110Y26274D01*
X24260Y26172D01*
X24408Y26068D01*
X24554Y25959D01*
X24696Y25848D01*
X24836Y25732D01*
X24973Y25614D01*
X25108Y25492D01*
X25239Y25367D01*
X25367Y25239D01*
X25492Y25108D01*
X25614Y24973D01*
X25732Y24836D01*
X25848Y24696D01*
X25959Y24554D01*
X26068Y24408D01*
X26172Y24260D01*
X26274Y24110D01*
X26371Y23957D01*
X26465Y23802D01*
X26555Y23645D01*
X26641Y23485D01*
X26723Y23324D01*
X26802Y23161D01*
X26876Y22995D01*
X26946Y22828D01*
X27013Y22660D01*
X27075Y22489D01*
X27133Y22318D01*
X27187Y22145D01*
X27237Y21970D01*
X27282Y21795D01*
X27323Y21618D01*
X27360Y21441D01*
X27393Y21263D01*
X27421Y21084D01*
X27445Y20904D01*
X27465Y20724D01*
X27480Y20543D01*
X27491Y20362D01*
X27498Y20181D01*
X27500Y20000D01*
X27498Y19819D01*
X27491Y19638D01*
X27480Y19457D01*
X27465Y19276D01*
X27445Y19096D01*
X27421Y18916D01*
X27393Y18737D01*
X27360Y18559D01*
X27323Y18382D01*
X27282Y18205D01*
X27237Y18030D01*
X27187Y17855D01*
X27133Y17682D01*
X27075Y17511D01*
X27013Y17340D01*
X26946Y17172D01*
X26876Y17005D01*
X26802Y16839D01*
X26723Y16676D01*
X26641Y16515D01*
X26555Y16355D01*
X26465Y16198D01*
X26371Y16043D01*
X26274Y15890D01*
X26172Y15740D01*
X26068Y15592D01*
X25959Y15446D01*
X25848Y15304D01*
X25732Y15164D01*
X25614Y15027D01*
X25492Y14892D01*
X25367Y14761D01*
X25239Y14633D01*
X25108Y14508D01*
X24973Y14386D01*
X24836Y14268D01*
X24696Y14152D01*
X24554Y14041D01*
X24408Y13932D01*
X24260Y13828D01*
X24110Y13726D01*
X23957Y13629D01*
X23802Y13535D01*
X23645Y13445D01*
X23485Y13359D01*
X23324Y13277D01*
X23161Y13198D01*
X22995Y13124D01*
X22828Y13054D01*
X22660Y12987D01*
X22489Y12925D01*
X22318Y12867D01*
X22145Y12813D01*
X21970Y12763D01*
X21795Y12718D01*
X21618Y12677D01*
X21441Y12640D01*
X21263Y12607D01*
X21084Y12579D01*
X20904Y12555D01*
X20724Y12535D01*
X20543Y12520D01*
X20362Y12509D01*
X20181Y12502D01*
X20000Y12500D01*
X19819Y12502D01*
X19638Y12509D01*
X19457Y12520D01*
X19276Y12535D01*
X19096Y12555D01*
X18916Y12579D01*
X18737Y12607D01*
X18559Y12640D01*
X18382Y12677D01*
X18205Y12718D01*
X18030Y12763D01*
X17855Y12813D01*
X17682Y12867D01*
X17511Y12925D01*
X17340Y12987D01*
X17172Y13054D01*
X17005Y13124D01*
X16839Y13198D01*
X16676Y13277D01*
X16515Y13359D01*
X16355Y13445D01*
X16198Y13535D01*
X16043Y13629D01*
X15890Y13726D01*
X15740Y13828D01*
X15592Y13932D01*
X15446Y14041D01*
X15304Y14152D01*
X15164Y14268D01*
X15027Y14386D01*
X14892Y14508D01*
X14761Y14633D01*
X14633Y14761D01*
X14508Y14892D01*
X14386Y15027D01*
X14268Y15164D01*
X14152Y15304D01*
X14041Y15446D01*
X13932Y15592D01*
X13828Y15740D01*
X13726Y15890D01*
X13629Y16043D01*
X13535Y16198D01*
X13445Y16355D01*
X13359Y16515D01*
X13277Y16676D01*
X13198Y16839D01*
X13124Y17005D01*
X13054Y17172D01*
X12987Y17340D01*
X12925Y17511D01*
X12867Y17682D01*
X12813Y17855D01*
X12763Y18030D01*
X12718Y18205D01*
X12677Y18382D01*
X12640Y18559D01*
X12607Y18737D01*
X12579Y18916D01*
X12555Y19096D01*
X12535Y19276D01*
X12520Y19457D01*
X12509Y19638D01*
X12502Y19819D01*
X12500Y20000D01*
D25*
X407978Y12712D03*
X431478Y12543D03*
D31*
X613360Y276760D03*
D32*
X621060Y276760D03*
D31*
X628760Y276760D03*
X628760Y291960D03*
D32*
X621060Y291960D03*
D31*
X613360Y291960D03*
D33*
X359660Y207300D03*
X359660Y232700D03*
X359660Y258100D03*
X283460Y258100D03*
X283460Y232700D03*
X283460Y207300D03*
D34*
X49450Y154549D03*
X49450Y205349D03*
X49450Y256149D03*
D35*
X632360Y15700D03*
X606960Y15700D03*
X581560Y15700D03*
X725360Y314440D03*
X699960Y314440D03*
X674560Y314440D03*
X649160Y314440D03*
X261860Y145260D03*
X236460Y145260D03*
D15*
X654260Y15860D03*
X671260Y15860D03*
D36*
X544660Y291660D03*
X478660Y291660D03*
D15*
X633920Y58000D03*
X616920Y58000D03*
X633920Y37960D03*
X616920Y37960D03*
X406420Y230420D03*
X389420Y230420D03*
X674920Y36880D03*
X657920Y36880D03*
X406920Y257340D03*
X389920Y257340D03*
X406920Y178760D03*
X389920Y178760D03*
X406420Y204220D03*
X389420Y204220D03*
D37*
X85340Y92200D03*
X85340Y62200D03*
X105340Y29200D03*
X135340Y29200D03*
X145340Y94700D03*
X145340Y59700D03*
D38*
X85340Y62200D02*
X85340Y92200D01*
X105340Y29200D02*
X135340Y29200D01*
X145340Y59700D02*
X145340Y94700D01*
D15*
X693433Y290051D03*
X676433Y290051D03*
X568500Y38000D03*
X585500Y38000D03*
D11*
X589750Y58000D03*
X572250Y58000D03*
D39*
X286500Y103000D03*
X310000Y150000D03*
D40*
X352582Y106399D03*
X704565Y204083D03*
X527872Y167283D03*
D39*
X508000Y101000D03*
X541000Y115000D03*
X358798Y75706D03*
X378000Y76000D03*
X399000Y69000D03*
X566000Y76000D03*
D41*
X268000Y86650D03*
X261650Y67600D03*
D40*
X270675Y103350D03*
X239349Y44669D03*
X204573Y239471D03*
X204573Y223913D03*
X204573Y192798D03*
X194603Y204038D03*
X235942Y196291D03*
D42*
X671040Y166600D03*
D39*
X687000Y16000D03*
X502000Y190000D03*
X518000Y179000D03*
X426000Y265000D03*
X464000Y265000D03*
X426000Y206000D03*
X483000Y101000D03*
X506000Y81000D03*
X419000Y118000D03*
X82000Y204000D03*
X82000Y218000D03*
X71000Y136000D03*
X35000Y180000D03*
X140000Y203000D03*
X178000Y150000D03*
X368381Y58000D03*
X475000Y47000D03*
X475000Y23000D03*
X676000Y94000D03*
X586000Y184000D03*
X586000Y164000D03*
X586000Y144000D03*
X586000Y124000D03*
X606000Y124000D03*
X626000Y124000D03*
X646000Y124000D03*
X666000Y124000D03*
X686000Y124000D03*
X706000Y124000D03*
X726000Y124000D03*
X746000Y124000D03*
X746000Y144000D03*
X746000Y164000D03*
X746000Y184000D03*
X746000Y204000D03*
X746000Y224000D03*
X726000Y164000D03*
X726000Y184000D03*
X616000Y184000D03*
X616000Y164000D03*
X616000Y144000D03*
X751000Y60000D03*
X699000Y9000D03*
X749000Y294000D03*
X588000Y321000D03*
X509000Y264000D03*
X488000Y264000D03*
X272000Y269000D03*
X182000Y321000D03*
X152000Y321000D03*
X122000Y321000D03*
X92000Y321000D03*
X62000Y321000D03*
X32000Y321000D03*
X12000Y281000D03*
X12000Y251000D03*
X12000Y221000D03*
X12000Y191000D03*
X12000Y161000D03*
X12000Y71000D03*
X12000Y51000D03*
X42000Y11000D03*
X72000Y11000D03*
X102000Y11000D03*
X132000Y11000D03*
X162000Y11000D03*
X192000Y11000D03*
X222000Y11000D03*
X262000Y11000D03*
X502000Y11000D03*
X532000Y11000D03*
X562000Y11000D03*
X382000Y11000D03*
X302000Y261000D03*
X342000Y261000D03*
X310000Y199000D03*
X436000Y93000D03*
X697000Y91000D03*
X449000Y61000D03*
X694252Y61748D03*
X450000Y48000D03*
D40*
X293400Y26643D03*
X322183Y31643D03*
X290575Y49169D03*
X399697Y120171D03*
X264453Y186019D03*
X264453Y173573D03*
D39*
X697806Y274311D03*
X408000Y27000D03*
X220000Y265000D03*
X442000Y239000D03*
X461000Y154000D03*
X694000Y39000D03*
X734806Y242311D03*
X220000Y252000D03*
X220000Y240000D03*
X207000Y265000D03*
X106000Y137000D03*
D40*
X212565Y97064D03*
X212565Y53503D03*
X253014Y103287D03*
D39*
X548000Y223000D03*
X633000Y107000D03*
X659000Y94000D03*
X407000Y217000D03*
D40*
X174728Y220103D03*
X220892Y176073D03*
X124436Y235026D03*
X175153Y162839D03*
D39*
X152000Y216357D03*
X141000Y215857D03*
X701000Y240000D03*
X602000Y321000D03*
X75000Y152000D03*
X165000Y118500D03*
X171000Y33000D03*
X605000Y37000D03*
X646000Y37000D03*
X615000Y320000D03*
X629717Y320000D03*
X701000Y227000D03*
X675000Y226000D03*
X565000Y271000D03*
X547000Y45000D03*
X420000Y159000D03*
X418000Y230000D03*
X684186Y46683D03*
X735000Y92000D03*
X518000Y46000D03*
M02*
