M48
;GenerationSoftware,Autodesk,EAGLE,9.5.2*%
;CreationDate,2020-04-01T09:21:30Z*%
FMAT,2
ICI,OFF
METRIC,TZ,000.000
T9C0.399
T8C0.400
T7C0.800
T6C0.900
T5C1.016
T4C1.270
T3C1.300
T2C2.000
T1C3.100
%
G90
M71
T1
X23664Y29844
X73000Y3000
T2
X67104Y16660
T3
X4945Y20535
X4945Y15455
X4945Y25615
T4
X17441Y7721
T5
X19591Y4921
X19591Y10521
X26186Y14526
X23646Y14526
X64916Y31444
X67456Y31444
X69996Y31444
X72536Y31444
X58156Y1570
X60696Y1570
X63236Y1570
T6
X28346Y20730
X35966Y23270
X28346Y25810
X35966Y20730
X35966Y25810
X28346Y23270
T7
X14534Y5970
X8534Y9220
X8534Y6220
X10534Y2920
X13534Y2920
X14534Y9470
T8
X23935Y4467
X20457Y23947
X35258Y10640
X70457Y20408
X52787Y16728
X20457Y22391
X19460Y20404
X12444Y23503
X17473Y22010
X22089Y17607
X17515Y16284
X26445Y17357
X26445Y18602
X39970Y12017
X29057Y4917
X32218Y3164
X29340Y2664
X27067Y10335
X26165Y6760
X26800Y8665
X20457Y19280
X23594Y19629
T9
X74600Y14400
X74600Y16400
X74600Y18400
X74600Y20400
X74600Y22400
X72600Y16400
X72600Y18400
X61600Y18400
X61600Y16400
X61600Y14400
X75100Y6000
X69900Y900
X74900Y29400
X58800Y32100
X50900Y26400
X48800Y26400
X27200Y26900
X18200Y32100
X15200Y32100
X12200Y32100
X9200Y32100
X6200Y32100
X3200Y32100
X1200Y28100
X1200Y25100
X1200Y22100
X1200Y19100
X1200Y16100
X1200Y7100
X1200Y5100
X4200Y1100
X7200Y1100
X10200Y1100
X13200Y1100
X16200Y1100
X19200Y1100
X22200Y1100
X50200Y19000
X50200Y1100
X53200Y1100
X56200Y1100
X38200Y1100
X30200Y26100
X34200Y26100
X31000Y19900
X43600Y9300
X69700Y9100
X44900Y6100
X69425Y6175
X45000Y4800
X28650Y10300
X31000Y15000
X50800Y10100
X54100Y11500
X35880Y7571
X37800Y7600
X69781Y27431
X40800Y2700
X22000Y26500
X44200Y23900
X46100Y15400
X69400Y3900
X73481Y24231
X22000Y25200
X22000Y24000
X20700Y26500
X10600Y13700
X21256Y9706
X21256Y5350
X25301Y10329
X54800Y22300
X63300Y10700
X65900Y9400
X40700Y21700
X39900Y6900
X56600Y7600
X68700Y1600
X51800Y17900
X15200Y21636
X14100Y21586
X70100Y24000
X60200Y32100
X42600Y26500
X16500Y11850
X17100Y3300
X60500Y3700
X64600Y3700
X61500Y32000
X62972Y32000
X70100Y22700
X67500Y22600
X56500Y27100
X54700Y4500
X42000Y15900
X41800Y23000
X68419Y4668
X73500Y9200
X51800Y4600
X46400Y26500
X42600Y20600
X48300Y10100
X50600Y8100
X41900Y11800
X8200Y20400
X26200Y1100
X8200Y21800
X7100Y13600
X3500Y18000
X14000Y20300
X17800Y15000
X36838Y5800
X47500Y4700
X47500Y2300
X67600Y9400
X58600Y18400
X58600Y16400
X58600Y14400
X58600Y12400
X60600Y12400
X62600Y12400
X64600Y12400
X66600Y12400
X68600Y12400
X70600Y12400
X72600Y12400
X74600Y12400
X7500Y15200
M30